<svg width="316" height="353" viewBox="0 0 316 353" fill="none" xmlns="http://www.w3.org/2000/svg">
<g filter="url(#filter0_d_251_441)">
<path d="M399.396 -124.249C501.512 -65.293 536.499 65.2815 477.543 167.397C418.586 269.512 288.012 304.5 185.896 245.543C83.781 186.587 48.7936 56.0125 107.75 -46.103C166.706 -148.218 297.281 -183.206 399.396 -124.249Z" fill="url(#paint0_radial_251_441)"/>
</g>
<path d="M386.078 252.846C385.059 253.242 383.985 253.237 383.691 252.861C383.399 252.47 382.967 251.876 382.718 251.538C382.107 250.712 375.527 249.315 371.664 249.188C369.719 249.132 367.786 248.437 366.531 247.351C365.413 246.396 364.274 245.741 364.001 245.898C363.734 246.052 363.281 245.768 362.99 245.265C362.697 244.756 361.632 244.269 360.613 244.156C359.609 244.058 358.781 243.565 358.792 243.062C358.804 242.496 358.527 242.508 358.064 243.078C357.528 243.766 357.088 243.591 356.442 242.473C355.883 241.505 353.834 240.412 350.939 239.516C346.185 238.077 342.696 234.949 343.023 232.441C343.11 231.809 342.907 230.412 342.583 229.329C342.258 228.252 342.456 226.253 343.018 224.898C344.25 221.971 343.959 221.322 340.529 219.332C339.094 218.499 337.838 217.297 337.728 216.634C337.62 215.99 334.986 213.691 331.88 211.552C327.673 208.637 324.872 207.326 320.887 206.391C316.082 205.271 310.404 202.657 309.542 201.166C309.368 200.863 309.635 200.355 310.142 200.063C310.77 199.7 310.692 198.863 309.9 197.462C309.258 196.319 308.816 194.603 308.926 193.633C309.27 190.508 305.721 186.558 305.019 189.29C304.852 189.973 304.354 190.728 303.905 190.987C302.769 191.643 301.835 189.7 302.746 188.56C304.125 186.821 301.461 187.348 297.519 189.601C295.477 190.768 293.37 191.687 292.845 191.655C292.311 191.608 290.292 190.526 288.364 189.223C285.289 187.161 284.5 186.976 282.252 187.753C278.802 188.948 274.997 191.155 269.77 194.993C265.71 197.982 265.174 198.185 261.368 198.262C258.222 198.331 256.065 198.953 251.852 201.023C245.606 204.075 244.915 204.04 235.437 200.081C232.396 198.817 227.95 197.315 225.558 196.733C222.7 196.038 221.342 195.377 221.604 194.787C222.252 193.358 219.392 190.339 216.413 189.306C214.91 188.784 213.02 188.028 212.218 187.623C211.404 187.206 209.685 186.34 208.398 185.698C206.655 184.82 205.887 183.961 205.401 182.357C205.042 181.162 203.956 178.759 202.964 177.005C201.818 174.969 201.328 173.273 201.599 172.299C202.168 170.284 201.612 166.376 200.824 166.831C200.494 167.022 199.728 166.324 199.121 165.272C198.519 164.23 198.265 163.237 198.559 163.066C198.854 162.896 199.35 163.275 199.664 163.905C200.936 166.494 201.614 164.826 200.372 162.152C199.478 160.217 198.891 159.514 198.621 160.049C198.096 161.04 198.167 161.185 196.159 155.159C194.785 151.045 194.629 149.238 195.295 145.455C195.744 142.897 196.505 140.372 196.986 139.835C197.47 139.295 197.618 138.442 197.317 137.92C196.344 136.236 196.937 132.935 198.462 131.585C199.307 130.832 199.921 129.335 199.872 128.154C199.804 126.52 200.151 125.954 201.433 125.592C202.462 125.315 202.944 124.852 202.682 124.399C202.451 123.999 202.637 123.525 203.106 123.356C203.57 123.18 204.264 122.614 204.643 122.098C205.023 121.587 205.91 120.478 206.6 119.635C207.572 118.454 207.622 117.483 206.84 115.44C205.414 111.767 206.883 105.753 209.961 102.65C212.882 99.712 213.567 94.9322 211.444 92.239C210.499 91.0297 209.726 90.6935 208.942 91.1462C208.323 91.5037 207.482 91.6056 207.074 91.3818C206.659 91.1562 205.787 91.2764 205.123 91.6595C203.701 92.4804 203.352 91.999 203.61 89.6123C203.736 88.4905 203.266 87.2178 202.326 86.1121C201.152 84.725 200.939 83.6385 201.32 80.8383C201.819 77.1772 201.099 73.2341 199.403 70.2742C198.553 68.7938 198.714 68.2463 200.538 66.388C202.305 64.5982 202.942 64.2937 204.3 64.6072C205.202 64.8127 206.351 64.7437 206.85 64.4558C207.352 64.1657 208.197 64.0617 208.729 64.2089C209.255 64.3575 211.326 64.1169 213.313 63.6708C216.786 62.8924 216.95 62.7795 217.242 60.9425C217.41 59.8853 217.162 57.9308 216.685 56.6134C215.684 53.8055 212.716 50.094 211.865 50.5853C211.544 50.7704 211.049 50.5283 210.765 50.0368C210.483 49.5492 209.744 49.2319 209.116 49.3205C208.453 49.4186 207.521 48.6914 206.874 47.5694C205.827 45.7559 205.9 45.5711 208.182 44.2536C209.517 43.483 210.964 43.1251 211.416 43.4458C211.863 43.7696 211.657 43.4437 210.973 42.729C209.985 41.6991 209.973 41.3833 210.896 41.247C211.541 41.1537 211.985 40.6686 211.894 40.1629C211.769 39.5411 212.313 39.3823 213.635 39.6779C215.459 40.0753 215.648 39.9739 217.317 37.6512L219.075 35.1988L216.592 35.8935C215.23 36.2756 211.969 37.6813 209.341 39.0128C206.717 40.3549 204.065 41.6935 203.456 42.0015C201.723 42.8651 201.532 41.6061 203.166 40.0862C203.979 39.3324 204.94 37.9523 205.311 37.0194C205.85 35.6413 205.753 35.319 204.798 35.2756C203.249 35.2155 202.911 32.9362 204.337 32.1132C205.16 31.638 205.183 30.9973 204.432 29.7393C203.53 28.2204 203.63 27.9089 205.203 27.2168C206.797 26.5069 206.878 26.2189 205.916 24.6892C205.253 23.6345 204.963 23.4587 205.18 24.2277C205.38 24.9299 205.113 25.7422 204.592 26.043C204.008 26.3801 203.571 26.1547 203.447 25.4517C203.288 24.4948 203.131 24.5495 202.493 25.7864C202.078 26.603 202.076 27.8636 202.5 28.597C202.921 29.3266 203.036 30.6441 202.747 31.5222C202.145 33.3636 197.531 37.2361 195.397 37.6884C193.214 38.149 191.855 35.294 193.279 33.2448C193.962 32.274 194.092 31.3303 193.599 30.9265C192.369 29.9124 192.752 25.9475 194.099 25.7385C194.719 25.6523 195.469 24.8105 195.751 23.8731C196.055 22.8925 196.964 21.9507 197.921 21.6217C199.026 21.2453 199.577 20.5288 199.608 19.4823C199.631 18.5086 199.408 18.0484 199.022 18.271C197.926 18.9036 197.623 17.3926 198.71 16.6654C199.695 15.9982 199.687 15.9848 198.501 16.3035C196.823 16.752 196.511 16.0024 197.136 13.0688C197.671 10.545 199.361 8.88824 200.094 10.1569C200.384 10.6598 200.642 10.4905 200.957 9.58473C201.209 8.88095 201.836 8.31544 202.35 8.34117C202.859 8.36523 203.538 7.55619 203.843 6.555C204.289 5.10123 204.65 4.80637 205.614 5.08525C206.58 5.35818 206.63 6.0609 205.889 8.45469C205.081 11.0594 205.12 11.3797 206.19 10.7621C207.829 9.81599 208.97 11.7933 208.206 14.2539C207.544 16.4087 208.95 18.4701 214.117 22.9033C217.672 25.966 220.367 30.1453 219.457 31.2242C219.124 31.6274 219.151 32.0511 219.515 32.1714C220.646 32.542 222.675 28.5435 223.056 25.1585C223.394 22.2409 223.714 21.7718 226.448 20.1931C229.779 18.2698 229.805 18.0747 227.582 12.8664C225.863 8.8243 225.941 7.76859 228.152 5.18915C229.616 3.46999 230.249 3.08443 230.957 3.46305C231.49 3.74933 231.383 3.09251 230.69 1.8924C229.39 -0.389575 228.301 -0.238239 227.239 2.38379C226.875 3.27724 225.75 4.49596 224.732 5.09628C221.997 6.71315 220.12 5.39675 217.89 0.309282C215.5 -5.15629 215.447 -7.48764 217.663 -10.6285C218.677 -12.07 219.372 -13.4693 219.215 -13.7398C219.055 -14.018 219.693 -15.1687 220.636 -16.2972C221.784 -17.6864 222.443 -19.8451 222.645 -22.9029C222.818 -25.403 223.412 -28.202 223.978 -29.1229C224.531 -30.057 224.817 -30.8594 224.59 -30.9266C224.366 -30.9901 223.773 -30.3557 223.268 -29.5259C222.763 -28.6961 222.118 -28.0798 221.829 -28.1616C221.047 -28.3857 222.963 -34.3277 224.752 -37.197C225.617 -38.5832 226.327 -40.1027 226.339 -40.5823C226.345 -41.0635 227.166 -41.9284 228.167 -42.5063C229.162 -43.0811 229.85 -43.7827 229.691 -44.057C229.259 -44.8057 232.285 -48.0714 234.836 -49.6127C236.393 -50.5548 237.82 -50.7717 239.603 -50.338C241.004 -49.9993 242.549 -49.9614 243.036 -50.2429C243.53 -50.5276 244.098 -50.4722 244.299 -50.1236C244.5 -49.775 245.211 -49.8069 245.886 -50.1965C248.072 -51.4583 256.926 -52.1685 258.438 -51.2005C259.278 -50.6746 260.604 -50.6142 261.529 -51.0749C263.018 -51.8178 263.014 -51.9194 261.543 -52.4164C260.666 -52.7152 259.672 -53.4314 259.336 -54.0124C258.997 -54.5991 258.436 -54.9124 258.1 -54.7187C257.761 -54.5228 257.218 -54.8165 256.893 -55.3804C256.439 -56.1671 256.801 -56.605 258.483 -57.2663C259.672 -57.7467 261.26 -58.2065 262 -58.281C262.997 -58.3837 263.539 -59.4309 264.115 -62.3112C264.607 -64.8328 265.529 -66.7673 266.719 -67.8021C270.243 -70.8474 266.382 -72.1841 262.455 -69.2718C260.913 -68.1277 259.17 -67.4565 257.555 -67.4028C255.432 -67.3252 254.723 -67.7391 252.937 -70.1138C251.777 -71.6514 250.255 -73.5337 249.563 -74.2921C246.801 -77.3428 246.115 -79.314 247.057 -81.5091C247.56 -82.6933 247.739 -84.0919 247.438 -84.6119C247.114 -85.1739 247.382 -85.7198 248.1 -85.9538C249.044 -86.2704 249.535 -85.84 250.343 -84.0129C250.906 -82.7251 252.55 -79.5648 254.008 -76.983C256.333 -72.8444 256.891 -72.242 258.713 -71.9297C261.431 -71.4645 267.407 -73.5331 270.17 -75.8976L272.372 -77.7891L269.795 -78.323C268.377 -78.6266 266.894 -79.4393 266.491 -80.1365C266.089 -80.8337 265.114 -81.6224 264.324 -81.9048C263.532 -82.1795 262.129 -83.2615 261.202 -84.3013C259.588 -86.1173 259.595 -86.2078 261.325 -86.6912C262.893 -87.1314 263.022 -87.4296 262.322 -89.0398L261.511 -90.8903L263.785 -90.1506C265.629 -89.5593 265.946 -89.6179 265.443 -90.4885C265.104 -91.0752 264.521 -91.3835 264.141 -91.1641C263.739 -90.9319 263.188 -91.4955 262.832 -92.5241C262.487 -93.4856 261.992 -94.1547 261.729 -94.0028C261.462 -93.8486 260.374 -94.8335 259.3 -96.1922C255.409 -101.1 254.775 -101.646 253.404 -101.284C251.449 -100.762 250.517 -102.731 252.231 -103.756C253.568 -104.559 253.559 -104.579 251.955 -104.577C251.054 -104.585 249.921 -104.779 249.458 -105.015C248.871 -105.314 248.723 -105.236 248.985 -104.76C249.19 -104.383 247.798 -102.685 245.886 -100.992C242.218 -97.7388 240.714 -97.2616 237.754 -98.4231C236.364 -98.9592 236.432 -99.0742 238.598 -99.8043C240.235 -100.346 241.232 -101.158 241.872 -102.464C242.419 -103.585 243.466 -104.533 244.496 -104.817C245.51 -105.098 246.04 -105.572 245.809 -105.972C245.548 -106.423 246.421 -107.051 248.339 -107.798C250.666 -108.707 251.224 -109.184 251.066 -110.16C250.806 -111.684 252.63 -112.767 257.134 -113.78C260.496 -114.53 260.574 -114.595 259.828 -115.887C259.407 -116.616 259.332 -117.863 259.658 -118.679C260.197 -120.014 260.102 -120.063 258.578 -119.208C256.592 -118.092 255.825 -118.394 255.222 -120.539C254.864 -121.814 255.244 -122.401 257.299 -123.636C258.684 -124.479 259.39 -125.105 258.868 -125.037C258.338 -124.967 257.684 -125.304 257.402 -125.791C256.082 -128.079 248.698 -126.234 247.511 -123.324C246.309 -120.359 241.55 -119.039 240.24 -121.308C239.853 -121.978 239.165 -122.536 238.7 -122.552C237.186 -122.615 236.767 -124.395 238.098 -125.163C238.872 -125.611 239.812 -125.478 240.444 -124.832C241.021 -124.24 241.793 -123.916 242.149 -124.122C242.507 -124.329 243.578 -124.314 244.516 -124.099C246.113 -123.738 246.22 -123.8 246.023 -124.969C245.906 -125.659 246.194 -126.457 246.671 -126.732C247.694 -127.323 247.22 -128.401 245.927 -128.462C245.422 -128.48 244.843 -129.106 244.635 -129.842C244.364 -130.8 243.439 -131.204 241.421 -131.248C238.574 -131.308 237.191 -132.209 238.587 -133.091C239.816 -133.869 232.304 -133.388 229.661 -132.532C228.324 -132.096 223.304 -131.491 218.502 -131.187C213.694 -130.88 209.032 -130.456 208.134 -130.248C206.299 -129.816 205.327 -130.761 206.743 -131.578C207.249 -131.871 207.505 -132.402 207.306 -132.747C207.105 -133.096 207.358 -133.62 207.864 -133.912C208.374 -134.207 208.952 -134.162 209.153 -133.813C209.352 -133.468 210.284 -133.618 211.222 -134.159C212.151 -134.691 214.013 -135.164 215.353 -135.198C218.619 -135.291 224.83 -138.023 224.211 -139.096C223.924 -139.593 224.253 -139.963 225.084 -140.083C225.81 -140.192 230.004 -141.429 234.405 -142.822C238.797 -144.223 243.11 -145.422 243.975 -145.49C247.857 -145.779 251.559 -146.465 252.655 -147.098C253.311 -147.477 254.92 -147.824 256.222 -147.867C258.363 -147.943 258.543 -148.047 258.041 -148.917C257.735 -149.447 257.767 -150.05 258.107 -150.246C258.442 -150.439 258.972 -150.168 259.27 -149.652C259.57 -149.132 260.305 -148.98 260.906 -149.327C261.508 -149.675 263.862 -150.239 266.148 -150.586C268.427 -150.934 271.406 -151.574 272.764 -152.013C275.536 -152.92 283.549 -153.206 284.009 -152.409C284.425 -151.689 276.465 -149.233 269.691 -147.994C268.871 -147.848 269.622 -147.669 271.353 -147.594C273.085 -147.519 274.72 -147.102 274.973 -146.664C275.228 -146.235 275.724 -146.044 276.069 -146.243C276.413 -146.442 278.516 -146.185 280.73 -145.652C282.947 -145.121 288.708 -144.592 293.529 -144.478C298.353 -144.359 303.653 -143.917 305.317 -143.501C307.224 -143.02 308.345 -143.085 308.355 -143.668C308.378 -145.014 307.059 -145.535 306.242 -144.507C305.579 -143.677 305.3 -143.826 304.029 -145.686C303.744 -146.103 302.893 -146.531 302.159 -146.646C299.451 -147.061 301.243 -148.139 306.206 -149.107C311.377 -150.108 313.17 -149.952 312.447 -148.58C312.213 -148.117 312.564 -147.886 313.319 -147.991C314.018 -148.098 314.754 -148.502 314.958 -148.894C315.163 -149.292 315.899 -149.506 316.607 -149.381C317.318 -149.246 318.759 -149.613 319.821 -150.188C321.227 -150.939 321.87 -150.924 322.18 -150.118C322.462 -149.399 323.071 -149.273 323.957 -149.767C325.572 -150.669 334.482 -149.116 335.239 -147.805C335.982 -146.517 335.035 -146.181 332.783 -146.938C331.719 -147.296 330.135 -147.543 329.258 -147.483C327.383 -147.356 332.947 -146.017 340.916 -144.685C344.18 -144.138 348.17 -142.802 350.342 -141.519C354.231 -139.243 366.395 -135.347 371.704 -134.679L374.708 -134.297L370.511 -136.215C366.137 -138.216 365.496 -138.701 366.442 -139.247C367.255 -139.717 386.251 -131.325 386.054 -130.579C385.964 -130.235 385.262 -130.071 384.49 -130.214C382.524 -130.58 383.046 -130.018 385.509 -129.129C387.564 -128.38 388.56 -127.51 387.833 -127.09C387.626 -126.971 385.121 -127.615 382.264 -128.521C379.409 -129.42 376.814 -130.019 376.508 -129.843C376.2 -129.665 375.113 -129.7 374.091 -129.923C372.261 -130.324 372.264 -130.318 374.452 -128.866C375.892 -127.917 376.417 -127.26 375.965 -126.999C375.581 -126.778 375.692 -126.24 376.199 -125.819C376.811 -125.316 376.802 -125.057 376.178 -125.093C374.24 -125.166 376.908 -124.206 379.356 -123.946L381.844 -123.67L380.543 -125.436C378.456 -128.262 380.114 -128.102 384.66 -125.035C390.078 -121.379 391.109 -120.958 391.132 -122.34C391.149 -123.077 392.679 -122.893 396.078 -121.749C401.613 -119.898 404.647 -118.363 410.593 -114.44C412.847 -112.958 415.636 -111.454 416.788 -111.116C420.274 -110.096 421.584 -109.471 423.832 -107.718C426.671 -105.519 427.511 -104.021 426.022 -103.799C425.132 -103.668 425.139 -103.449 426.076 -102.862C427.801 -101.755 436.938 -91.3538 438.384 -88.8488C439.058 -87.6811 440.984 -85.7373 442.667 -84.525C446.095 -82.0515 450.53 -76.2278 449.457 -75.6081C449.091 -75.3973 447.781 -76.2537 446.552 -77.5226C442.898 -81.2905 442.33 -81.7828 442.214 -81.2942C442.15 -81.0413 443.778 -78.8499 445.856 -76.4199C449.298 -72.3801 449.969 -71.9164 453.819 -70.9895C459.213 -69.6947 462.503 -66.4407 469.644 -55.3472C474.255 -48.1747 474.783 -47.1153 473.926 -46.6209C473.398 -46.3158 472.711 -46.4908 472.411 -47.0109C472.107 -47.5366 471.444 -47.7225 470.943 -47.4335C470.437 -47.1413 469.773 -47.3291 469.475 -47.8454C468.653 -49.2684 467.72 -48.3637 468.132 -46.5543C468.573 -44.6201 473.076 -38.5127 473.764 -38.9098C474.044 -39.0714 475.15 -38.0845 476.222 -36.7277C477.611 -34.9819 478.683 -34.2852 479.856 -34.3857C483.342 -34.6742 491.497 -23.8174 495.564 -13.4841C496.971 -9.89494 497.886 -6.68419 497.597 -6.34488C497.304 -6.01807 497.303 -5.33144 497.582 -4.84759C497.87 -4.3485 497.823 -3.78304 497.482 -3.58611C497.143 -3.39025 496.617 -3.66318 496.314 -4.18894C495.621 -5.38905 489.787 -9.6104 488.955 -9.51572C487.943 -9.39661 487.534 -10.6919 488.134 -12.0974C488.631 -13.2657 488.441 -13.4357 486.457 -13.5676C483.613 -13.7671 482.33 -15.9216 483.209 -18.9842C483.776 -20.9601 484.119 -21.2952 485.313 -21.0804C486.102 -20.934 486.814 -21.0914 486.905 -21.4405C487.156 -22.447 480.19 -29.0976 479.376 -28.6277C478.952 -28.3826 476.962 -30.0402 474.73 -32.493C467.987 -39.9156 466.291 -41.6414 462.711 -44.7813L459.212 -47.833L460.562 -44.0305C461.838 -40.4085 461.514 -38.0018 459.948 -39.5205C459.55 -39.9104 458.196 -41.2574 456.953 -42.5108C455.703 -43.7679 454.453 -44.6586 454.173 -44.497C453.884 -44.33 452.014 -44.5841 450.013 -45.054C448.009 -45.5357 446.219 -45.8231 446.039 -45.7065C445.398 -45.3107 446.886 -34.184 447.782 -32.6315C448.274 -31.78 449.058 -29.5227 449.534 -27.6107C450.56 -23.471 453.688 -15.0084 454.951 -12.9665C455.446 -12.1651 456.005 -9.69889 456.203 -7.4765C456.533 -3.74054 456.712 -3.31055 458.688 -1.78451C459.858 -0.867323 461.627 1.20754 462.613 2.83794C464.756 6.37533 467.563 9.21524 468.989 9.27559C471.097 9.36127 475.082 11.8104 476.164 13.6848C477.555 16.0946 477.933 19.2905 476.966 20.5015C475.994 21.7254 474.743 20.9591 472.125 17.5586C469.741 14.4522 469.02 15.0232 469.968 19.2764C470.377 21.1359 470.159 21.9193 469.019 22.5775C467.838 23.2593 466.748 22.9288 463.761 20.9626C461.692 19.6096 459.665 18.5522 459.259 18.6397C458.845 18.7188 456.981 17.7044 455.109 16.3848C453.239 15.0671 450.604 13.6419 449.272 13.2145C447.943 12.791 446.302 11.9272 445.625 11.3071C444.953 10.6868 444.118 10.336 443.764 10.5404C443.414 10.7427 443.042 10.4367 442.944 9.84797C442.846 9.25923 441.51 8.15139 439.964 7.3878C438.426 6.61992 437.006 5.70226 436.805 5.35366C436.6 4.99934 435.504 5.43406 434.272 6.36123C432.819 7.46182 431.083 8.03763 428.951 8.11761C427.206 8.19041 425.416 8.45444 424.982 8.70488C424.548 8.95533 423.951 8.75936 423.666 8.26599C423.379 7.7688 422.185 7.66572 421.009 8.03482C419.829 8.3982 418.485 8.37695 418.011 7.98489C417.533 7.59794 416.412 7.28266 415.521 7.30971C414.243 7.34097 413.683 7.80427 412.963 9.485C412.454 10.6597 411.291 12.5963 410.388 13.763C409.486 14.9492 408.497 16.7263 408.2 17.7487C407.893 18.7618 407.299 19.646 406.871 19.7198C406.441 19.8006 405.058 20.9575 403.807 22.3067C400.968 25.3734 397.519 27.4132 395.966 26.976C394.239 26.4926 395.555 28.529 398.007 30.1336C400.246 31.6065 401.9 31.5255 403.578 29.8811C404.304 29.1648 405.959 28.7477 407.896 28.7899C410.818 28.8455 411.094 29.019 411.955 31.3588C412.468 32.7361 413.345 35.0212 413.909 36.4431C414.529 38.0083 414.593 39.2157 414.068 39.5186C413.488 39.8536 413.648 40.7899 414.581 42.4053C415.558 44.0987 415.738 45.2143 415.183 46.2914C414.755 47.1175 414.744 48.3942 415.159 49.1143C415.621 49.9144 415.504 50.8633 414.858 51.5081C414.21 52.1539 414.056 53.3603 414.463 54.5431C414.886 55.7691 414.711 56.9295 414.023 57.6184C412.281 59.3434 410.52 65.0535 411.211 66.7503C411.598 67.6999 411.115 69.7393 409.943 72.1326C408.906 74.2579 407.757 76.9987 407.4 78.2209C406.566 81.0395 403.039 88.1427 402.242 88.6029C401.906 88.7966 401.312 90.1255 400.914 91.5642C400.478 93.1594 399.43 94.6663 398.233 95.436C396.474 96.5712 395.956 96.4887 393.225 94.6569C389.417 92.0934 388.199 91.0189 386.642 88.8161C385.781 87.5939 383.945 86.726 380.614 85.952C377.977 85.3359 375.326 84.3414 374.707 83.7264C374.093 83.113 372.457 82.7368 371.071 82.8664C369.113 83.0623 367.992 82.5923 366.057 80.7577C361.872 76.7915 359.355 75.3135 357.578 75.811C356.654 76.06 355.011 75.6929 353.923 74.9774C352.834 74.2678 351.709 73.8176 351.416 73.9867C351.127 74.1536 350.343 73.7503 349.684 73.0892C347.618 71.0338 341.749 69.2735 340.825 70.4343C340.376 70.996 340.261 71.888 340.567 72.4195C341.271 73.6387 347.806 77.5671 350.625 78.4691C351.797 78.8386 352.752 79.4911 352.746 79.9165C352.729 80.932 354.498 82.3516 355.249 81.9182C356.982 80.9175 361.442 83.501 364.377 87.2141C366.006 89.2831 366.964 89.8453 368.865 89.8883C370.196 89.9171 372.638 90.8845 374.276 92.0393C375.918 93.187 377.689 94.1736 378.199 94.2142C378.825 94.2746 378.888 94.4439 378.373 94.7464C377.964 94.9897 378.04 95.5276 378.536 95.9371C379.728 96.9149 380.697 96.3151 379.967 95.0502C379.582 94.3835 379.882 93.8594 380.895 93.4601C381.884 93.062 382.651 93.2948 383.134 94.131C383.585 94.912 385.254 95.505 387.515 95.688C392.971 96.1091 396.47 97.1521 398.053 98.8061C400.348 101.227 402.421 100.729 404.9 97.1973C406.068 95.5299 407.28 93.6566 407.602 93.0444C407.92 92.4264 408.502 91.5007 408.884 91.0011C411.949 87.0419 414.56 82.8043 414.539 81.8259C414.528 81.182 415.064 80.3389 415.724 79.9579C416.623 79.4388 417.179 79.6995 417.95 81.0348C418.514 82.0121 419.53 82.975 420.208 83.168C421.197 83.4525 421.304 83.7617 420.738 84.7463C420.351 85.4166 420.413 86.2725 420.872 86.6525C421.327 87.0298 421.795 88.906 421.916 90.8325C422.037 92.7462 422.515 96.5317 422.997 99.2377C424.335 106.928 423.771 112.847 420.455 125.8C415.882 143.715 414.188 154.383 416.094 153.283C417.058 152.726 418.147 155.333 417.283 156.131C416.579 156.774 416.712 157.02 418.336 158.079C420.455 159.458 421.092 160.655 420.777 162.671C420.477 164.556 422.809 166.892 424.52 166.426C425.744 166.102 426.212 166.647 429.026 171.723L432.164 177.389L431.081 181.387C430.472 183.662 428.91 186.697 427.488 188.396C426.098 190.042 424.868 192.017 424.744 192.78C424.62 193.545 423.777 195.347 422.858 196.795C421.034 199.697 420.979 201.456 422.715 202.122C424.064 202.646 425.984 207.204 425.448 208.611C425.243 209.133 423.931 210.863 422.531 212.441C420.394 214.866 420.043 215.813 420.317 218.345C420.655 221.375 420.542 221.651 414.681 231.21C411.094 237.07 408.048 239.74 397.657 246.157C392.308 249.453 387.102 252.466 386.078 252.846ZM409.528 181.657C408.249 180.623 409.631 184.656 411.078 186.182C411.881 187.021 411.937 186.728 411.307 184.858C410.863 183.528 410.06 182.089 409.528 181.657ZM391.339 180.351C391.161 180.044 390.35 179.966 389.546 180.182C388.343 180.505 388.307 180.661 389.328 181.051C390.728 181.592 391.832 181.206 391.339 180.351ZM391.779 160.564C393.043 159.834 393.413 156.433 392.327 155.537C391.587 154.922 390.98 155.083 389.902 156.131C389.107 156.9 388.513 157.858 388.594 158.238C388.666 158.631 388.362 159.154 387.914 159.413C387.476 159.666 387.488 160.794 387.939 161.91C388.589 163.549 389.003 163.831 390.134 163.383C390.896 163.081 391.404 162.427 391.261 161.928C391.115 161.425 391.355 160.809 391.779 160.564ZM492.666 -10.4038C491.756 -10.6227 491.728 -10.4695 492.56 -9.75316C493.144 -9.24214 493.94 -8.36346 494.32 -7.81302C494.71 -7.26115 494.751 -7.55405 494.428 -8.46177C494.105 -9.37544 493.306 -10.2452 492.666 -10.4038ZM490.933 -12.0573C490.232 -13.2708 489.849 -13.0492 490.097 -11.5746C490.202 -10.9343 490.551 -10.5646 490.887 -10.7583C491.217 -10.9488 491.236 -11.5316 490.933 -12.0573ZM391.959 38.8598C391.453 37.9611 391.532 37.8974 392.493 38.4272C393.993 39.2352 394.192 38.2235 393.73 32.0209C393.518 29.2302 393.625 26.799 393.951 26.6106C394.277 26.4222 394.34 25.9138 394.075 25.485C393.808 25.0525 393.372 25.9289 393.088 27.4315C392.443 30.8617 388.889 33.7695 385.159 33.9014C383.782 33.9522 382.326 34.4095 381.922 34.9141C381.206 35.8052 374.487 34.2844 373.786 33.069C373.612 32.7681 373.176 32.6895 372.813 32.8993C372.449 33.1091 372.17 32.8946 372.177 32.4231C372.183 31.9547 371.897 31.7414 371.536 31.9501C371.18 32.1556 371.244 32.9693 371.693 33.7563C372.35 34.9141 372.29 35.0728 371.361 34.5806C370.373 34.059 370.291 34.1189 370.812 35.0424C371.144 35.6255 371.16 36.4592 370.844 36.8958C370.45 37.4333 370.898 37.7639 372.27 37.9317C373.363 38.0701 374.484 38.5685 374.756 39.039C375.032 39.5172 375.548 39.5115 375.928 39.0325C376.328 38.5222 377.465 38.6408 378.76 39.3256C379.945 39.957 381.548 40.614 382.331 40.7813C383.108 40.945 383.363 41.1029 382.887 41.1233C382.416 41.1542 382.232 41.5472 382.495 42.0024C382.753 42.4482 383.363 42.5857 383.84 42.3107C384.427 41.9714 384.335 41.3618 383.579 40.4723C382.601 39.3303 382.661 39.0923 383.982 38.7944C385.951 38.3512 385.769 38.2838 387.725 40.1917C388.886 41.3327 389.224 42.0546 388.857 42.5584C388.474 43.0639 388.669 43.3119 389.544 43.3934C391.117 43.5318 392.803 40.364 391.959 38.8598ZM291.976 83.7942C290.812 81.154 290.829 80.4685 292.158 78.4113C294.132 75.3616 296.608 73.965 298.904 74.6154C299.914 74.9009 301.933 74.7206 303.406 74.2057C304.869 73.7011 306.476 73.3501 306.975 73.4275C307.475 73.5097 308.944 73.1723 310.251 72.6841C311.551 72.1954 314.163 71.2564 316.046 70.6088C318.976 69.5876 319.624 69.1013 320.435 67.2644C321.427 65.0101 324.34 62.9271 328.5 61.4597C331.651 60.3543 331.733 59.6186 329.478 51.9496C327.255 44.3917 324.754 40.9669 322.193 41.9856C321.282 42.3515 320.629 43.1426 320.641 43.8746C320.685 45.7902 317.696 48.2344 315.8 47.8356C313.308 47.3035 310.847 48.0588 311.482 49.158C312.534 50.981 309.547 53.29 307.038 52.5843C305.523 52.1561 305.441 52.2414 305.925 53.7985C306.452 55.4984 305.558 57.4266 304.833 56.1713C304.613 55.7903 303.515 55.2202 302.395 54.9069C301.279 54.5914 300.273 53.813 300.161 53.177C300.018 52.3221 299.719 52.3094 298.973 53.1491C298.26 53.9441 297.807 53.9643 297.38 53.2252C297.056 52.6632 297.163 52.2104 297.625 52.2279C298.084 52.2475 298.295 51.9659 298.08 51.5944C297.866 51.223 297.266 51.1652 296.736 51.4713C295.995 51.8994 295.449 51.3659 294.283 49.0979C293.463 47.4888 292.486 46.0871 292.113 45.9849C291.732 45.8773 291.625 46.1293 291.859 46.5351C292.094 46.9408 291.867 47.5112 291.364 47.8012C290.858 48.0934 290.197 47.9113 289.894 47.3856C289.596 46.8693 289.622 46.2774 289.961 46.0816C290.302 45.8846 290.303 45.2519 289.97 44.6747C289.487 43.8384 289.297 44.0525 288.986 45.7709C288.764 46.9532 287.838 48.598 286.906 49.4331L285.215 50.9478L287.839 51.7947C289.324 52.2763 290.659 52.2696 290.918 51.7848C291.163 51.3086 291.361 51.2881 291.35 51.7284C291.34 52.1687 293.174 53.1316 295.421 53.8687C298.92 55.0057 299.409 55.3607 298.834 56.3507C298.462 56.9821 298.479 57.6786 298.861 57.892C299.248 58.1032 299.306 58.4304 298.979 58.6188C298.653 58.8072 297.984 58.6294 297.495 58.2234C296.988 57.8026 296.287 57.885 295.871 58.4117C295.351 59.065 294.907 58.9379 294.354 57.9797C293.415 56.3529 291.157 56.4959 291.11 58.1838C291.097 58.8416 291.527 60.1682 292.071 61.1317C292.624 62.0899 292.79 63.0358 292.45 63.2316C292.115 63.4253 291.706 63.3641 291.548 63.0898C291.392 62.8193 290.243 62.7512 289.003 62.9461C287.474 63.1837 286.482 62.865 285.968 61.9754C285.547 61.2458 284.804 60.8797 284.315 61.1622C283.03 61.9039 281.677 60.9301 282.294 59.7128C282.685 58.9591 282.617 58.7871 282.054 59.1076C281.627 59.3489 280.956 58.9841 280.567 58.3097C280.176 57.6316 279.468 57.0649 278.999 57.0458C277.402 56.9752 273.816 53.6584 273.103 51.5885C272.548 49.9605 271.864 49.4132 269.805 48.9158C268.386 48.5691 266.086 48.5153 264.702 48.7858C263.324 49.0659 262.017 48.985 261.804 48.6174C261.595 48.2555 260.436 47.6904 259.23 47.3558C255.614 46.393 253.304 45.3083 252.727 44.3082C251.894 42.8662 250.874 43.8898 251.197 45.8416C251.423 47.1821 252.033 47.7467 253.907 48.3385C255.233 48.7642 256.577 49.5553 256.889 50.0963C257.772 51.626 261.807 53.0305 263.141 52.2599C263.794 51.8832 264.545 51.9522 264.806 52.4036C265.072 52.8646 267.067 53.4123 269.232 53.6431C273.227 54.0594 274.104 54.6628 274.042 56.9489C274.015 58.0315 273.679 58.1185 271.879 57.5397C270.71 57.1661 269.574 57.2022 269.354 57.6263C269.08 58.1451 269.296 58.49 270.019 58.6926C270.606 58.8616 271.373 59.4803 271.714 60.0708C272.579 61.5681 271.485 66.888 270.151 67.6586C269.341 68.1263 269.342 68.7883 270.154 70.1942C271.37 72.301 270.444 73.3816 268.014 72.6947C267.198 72.4643 266.352 72.3893 266.126 72.5199C265.184 73.0636 260.577 72.1395 260.096 71.3071C259.446 70.1813 261.939 67.6624 263.31 68.0497C264.539 68.3939 268.375 65.4303 268.471 64.0593C268.581 62.525 266.349 60.5728 263.863 60.0169C258.749 58.8826 256.675 58.5308 256.277 58.7403C256.039 58.8646 254.382 58.3023 252.586 57.4903C250.788 56.6744 248.955 56.2266 248.51 56.4834C248.065 56.7403 247.534 56.6635 247.333 56.3149C247.131 55.9663 247.262 55.5123 247.633 55.2982C248.528 54.7813 246.129 52.6207 244.423 52.4144C243.407 52.2948 242.742 52.7652 241.734 54.32C239.166 58.2763 238.846 58.6848 238.014 59.1653C237.552 59.4318 236.027 59.7054 234.621 59.7783C231.495 59.9344 230.391 61.1609 231.562 63.1877C232.616 65.0146 232.264 66.117 229.665 69.1621C227.074 72.1891 225.504 77.2132 226.775 78.3839C227.83 79.3626 226.692 85.4702 225.467 85.4205C225.077 85.4044 224.594 86.0618 224.384 86.8889C223.951 88.5966 222.35 89.6888 219.662 90.0929C217.166 90.4747 215.454 92.3167 216.276 93.7416C217.09 95.1513 217.928 95.2238 220.312 94.0835C221.319 93.6012 222.683 93.3522 223.344 93.5245C224.145 93.7447 225.001 93.3424 225.937 92.319C231.448 86.2801 232.911 85.3417 245.357 79.9667C247.343 79.1123 250.435 77.5249 252.21 76.4497C254.469 75.0843 255.694 74.7099 256.286 75.2009C256.759 75.5911 257.445 75.5251 257.819 75.0553C258.268 74.4858 258.748 74.6484 259.275 75.5608C259.705 76.3056 259.739 77.3069 259.357 77.784C258.817 78.4794 258.979 78.8632 260.14 79.6329C264.056 82.2157 264.15 82.3218 263.635 83.345C263.349 83.9065 262.666 84.6236 262.115 84.9543C261.559 85.2753 261.197 86.0913 261.299 86.7514C261.419 87.4389 261.668 87.6304 261.892 87.1914C262.104 86.7844 263.805 86.9302 265.662 87.514C267.533 88.1 269.642 88.2307 270.389 87.7994C272.851 86.378 278.652 86.3082 279.447 87.6855C279.909 88.4856 280.948 88.8352 282.257 88.6438C283.405 88.4709 285.975 88.2695 287.966 88.1945C292.991 88.0187 293.565 87.4029 291.976 83.7942ZM297.276 64.9079C296.212 65.3244 295.306 65.2503 295.201 64.755C294.983 63.7402 295.071 63.682 299.406 62.0983C305.409 59.9207 303.435 62.5257 297.276 64.9079ZM318.943 52.1144C318.414 51.1982 319.101 48.6552 319.821 48.8589C320.137 48.9482 320.824 48.1427 321.355 47.0619C322.334 45.0511 323.146 45.2327 322.608 47.3443C322.442 47.9988 322.552 48.3871 322.854 48.2127C323.153 48.0403 323.113 48.627 322.747 49.5215C321.976 51.4173 319.509 53.0955 318.943 52.1144ZM303.63 58.8904C303.391 57.4104 303.776 57.1878 304.477 58.4013C304.78 58.927 304.756 59.51 304.43 59.6984C304.098 59.8899 303.743 59.5313 303.63 58.8904ZM269.242 75.7853C268.774 74.9757 269.214 74.722 270.169 75.2502C270.581 75.4846 270.619 75.8334 270.258 76.0421C269.902 76.2476 269.449 76.1434 269.242 75.7853ZM249.375 71.4751C249.165 71.2053 248.892 70.6819 248.763 70.2916C248.634 69.9012 247.841 68.4113 247.006 66.9654C245.832 64.9329 245.734 64.2403 246.563 63.8481C247.398 63.4527 247.298 62.8728 246.089 61.1142C244.896 59.3726 244.753 58.5813 245.438 57.4469C246.195 56.1846 246.402 56.1891 247.099 57.4811C247.538 58.294 248.004 59.6561 248.134 60.4979C248.26 61.3546 248.969 62.5529 249.699 63.1655C250.706 64.0113 252.229 68.0287 252.039 69.3426C251.939 70.0125 249.654 71.8346 249.375 71.4751ZM233.288 75.4673C232.223 74.878 232.32 73.4452 233.464 72.7848C233.998 72.4766 234.57 72.7355 234.802 73.4195C235.302 74.8299 234.378 76.072 233.288 75.4673ZM235.933 72.2534C235.721 71.8858 235.826 71.4213 236.165 71.2254C236.953 70.7706 237.21 71.2163 236.713 72.1741C236.494 72.5873 236.145 72.6211 235.933 72.2534ZM294.426 55.0938C293.621 54.8697 293.486 55.0419 293.896 55.7524C294.626 57.0173 295.945 57.3915 295.701 56.2673C295.602 55.7913 295.025 55.2632 294.426 55.0938ZM357.954 6.61035C358.463 5.40418 358.284 4.98691 356.594 3.58789C355.521 2.70123 354.431 2.09651 354.164 2.25063C353.895 2.40582 353.469 2.16912 353.214 1.72718C352.956 1.28142 351.579 0.179527 350.15 -0.727911C348.722 -1.63535 347.321 -2.77237 347.04 -3.26003C346.764 -3.73817 345.909 -4.24577 345.155 -4.39195C344.396 -4.53005 343.383 -5.3217 342.904 -6.15034C342.273 -7.24377 341.692 -7.45426 340.772 -6.9234C340.084 -6.52633 338.403 -6.5105 337.059 -6.89514C335.699 -7.2761 334.346 -7.44486 334.051 -7.27468C333.753 -7.10237 332.617 -7.32775 331.537 -7.7763C328.894 -8.86609 327.085 -8.50518 326.825 -6.82351C326.66 -5.81154 326.99 -5.18911 328.075 -4.42645C328.88 -3.86747 330.117 -2.79102 330.817 -2.02903C331.51 -1.26872 332.459 -0.472916 332.925 -0.269509C334.669 0.516684 343.536 1.61484 344.345 1.14819C344.812 0.878483 345.439 1.08768 345.74 1.60773C346.04 2.12777 345.859 2.80849 345.329 3.11459C344.554 3.56197 344.816 4.33564 346.663 7.20099C348.763 10.4535 349.092 10.6901 350.621 10.0618C351.538 9.68675 352.708 9.49428 353.203 9.62474C354.547 9.97904 357.263 8.24848 357.954 6.61035ZM297.497 39.1962C297.296 38.8476 296.692 38.8125 296.169 39.1143C295.641 39.4193 295.538 39.8622 295.954 40.0866C296.92 40.6211 297.97 40.0153 297.497 39.1962ZM303.042 30.5925C304.569 27.5519 309.624 23.1397 310.28 24.275C310.489 24.6369 310.845 24.5862 311.068 24.1551C311.291 23.724 312.086 23.4813 312.819 23.6217C313.573 23.7581 315.947 22.8317 318.205 21.5281C321.555 19.5941 322.36 18.8063 322.904 16.9051C323.726 14.0558 322.406 13.0324 318.078 13.1564C316.393 13.2047 313.013 13.2969 310.548 13.3482C305.76 13.4585 304.462 14.1773 302.966 17.5454C301.809 20.1613 300.253 21.1642 299.472 19.8117C299.15 19.2535 298.223 18.9757 297.403 19.1952C296.387 19.4643 295.802 19.1698 295.542 18.2355C295.272 17.281 294.826 17.0737 294.037 17.5296C293.416 17.8882 292.562 17.9036 292.136 17.5728C291.128 16.778 290.423 21.1553 291.297 22.7128C291.636 23.3348 291.647 24.6496 291.309 25.6397C290.979 26.6353 291.157 28.2191 291.721 29.1963C292.28 30.164 292.484 31.105 292.19 31.2752C291.148 31.8767 292.557 34.8272 294.309 35.7432C296.782 37.0158 301.088 34.4815 303.042 30.5925ZM305.456 9.77313C305.359 9.18439 304.817 8.58018 304.253 8.42076C302.938 8.04446 300.875 10.8361 301.573 12.0457C302.231 13.1849 305.69 11.1574 305.456 9.77313ZM245.049 9.0171C245.848 7.03671 247.889 5.77217 249.527 6.23837C250.372 6.47708 250.762 6.29541 250.795 5.65615C250.826 5.14341 251.199 4.29556 251.636 3.756C252.141 3.13674 251.971 1.73372 251.166 -0.132733C250.472 -1.74121 249.539 -4.82964 249.095 -7.00371C248.42 -10.3046 248.555 -11.2005 249.896 -12.5257C251.303 -13.915 251.034 -13.8891 247.608 -12.2892C245.34 -11.229 243.764 -10.1567 243.826 -9.70234C244.011 -8.38132 243.406 -6.73173 242.28 -5.48457C241.15 -4.23039 241.332 -1.68105 242.601 -0.976391C243.426 -0.528091 243.756 2.68488 243.114 4.01798C242.894 4.49301 242.086 5.23877 241.327 5.68734C239.898 6.52527 239.989 7.66376 241.478 7.72592C242.746 7.78131 243.125 8.88319 242.08 9.48683C241.574 9.77901 240.993 9.736 240.791 9.38739C240.59 9.03879 239.733 9.15524 238.882 9.6465C238.031 10.1378 237.502 10.8219 237.703 11.1705C237.904 11.5191 238.485 11.5621 238.991 11.2699C239.503 10.9745 240.176 11.1678 240.474 11.684C241.18 12.9246 244.163 11.1898 245.049 9.0171ZM244.669 -0.994518C244.245 -1.72982 244.107 -2.94048 244.368 -3.67806C245.1 -5.77465 245.705 -5.0521 245.576 -2.21131C245.47 0.0671046 245.37 0.206187 244.669 -0.994518ZM234.506 7.15386C234.96 6.26486 234.762 5.87104 233.454 5.02627C232.495 4.40139 232.266 4.39103 232.87 4.97943C233.492 5.57581 233.657 6.55986 233.304 7.45665C232.63 9.10086 233.637 8.85951 234.506 7.15386ZM255.235 -7.83354C254.944 -9.57048 252.512 -10.3308 251.992 -8.85186C251.654 -7.93031 251.874 -7.51898 253.008 -6.89579C254.744 -5.94273 255.501 -6.26289 255.235 -7.83354ZM276.809 -26.5705C276.312 -27.4315 274.897 -27.3641 274.884 -26.4879C274.867 -25.6604 275.839 -25.2105 276.64 -25.6729C276.925 -25.8377 277 -26.239 276.809 -26.5705ZM256.846 -18.9006C256.598 -20.3752 256.281 -20.1922 256.004 -18.4147C255.874 -17.6081 256.05 -17.176 256.413 -17.3858C256.76 -17.581 256.951 -18.2603 256.846 -18.9006ZM243.27 -15.1872C243.336 -16.2541 239.377 -22.7563 238.847 -22.4502C238.661 -22.3432 238.128 -20.9684 237.652 -19.3986C236.533 -15.6944 237.372 -12.5466 239.577 -12.2502C241.261 -12.0232 243.169 -13.5339 243.27 -15.1872ZM262.579 -25.5606C262.111 -26.3702 259.54 -26.8004 258.542 -26.2246C257.914 -25.8618 259.122 -24.3774 260.328 -24.0428C261.961 -23.5783 263.227 -24.4386 262.579 -25.5606ZM241.589 -27.089C242.868 -30.276 242.393 -32.1048 240.545 -31.0378C239.336 -30.3399 238.31 -27.6776 238.874 -26.7003C239.044 -26.407 239.28 -25.6134 239.39 -24.9509C239.68 -23.2159 240.256 -23.7769 241.589 -27.089ZM259.807 -39.6292C259.401 -39.8541 258.602 -39.7514 258.041 -39.3967C257.209 -38.8603 257.305 -38.7789 258.573 -38.9164C260.649 -39.1347 260.668 -39.1454 259.807 -39.6292ZM260.916 -44.8285C260.236 -46.0057 259.793 -45.9477 257.027 -44.3509C254.23 -42.7358 254 -42.4307 254.869 -41.4185C255.663 -40.4878 256.365 -40.5702 258.764 -41.8866C261.339 -43.3046 261.596 -43.6512 260.916 -44.8285ZM375.089 -126.372C375.101 -126.783 374.519 -127.234 373.812 -127.364C372.751 -127.557 372.708 -127.397 373.596 -126.495C374.785 -125.267 375.067 -125.249 375.089 -126.372ZM265.388 -87.8707C264.422 -88.1436 264.391 -88.0217 265.247 -87.3174C265.842 -86.8225 266.388 -86.673 266.464 -86.9783C266.548 -87.2812 266.056 -87.6851 265.388 -87.8707ZM327.241 -147.342C327.168 -147.468 326.394 -147.692 325.525 -147.827C324.093 -148.05 324.085 -148.012 325.434 -147.453C326.839 -146.864 327.544 -146.817 327.241 -147.342ZM267.762 -147.723C267.486 -148.201 258.487 -146.158 258.364 -145.583C258.231 -144.948 258.489 -144.968 263.866 -145.921C266.853 -146.446 268.151 -147.048 267.762 -147.723ZM446.883 191.478C446.603 191.305 445.665 190.023 444.801 188.624C443.515 186.552 443.383 185.549 444.043 183.159C444.752 180.616 444.63 179.968 443.125 178.132C441.144 175.724 440.519 171.298 442.022 170.43C443.739 169.438 446.957 163.989 447.543 161.103C449.872 149.429 449.894 149.353 451.37 149.829C453.328 150.441 456.61 154.931 456.119 156.327C455.903 156.93 455.436 157.341 455.085 157.247C454.724 157.145 454.876 157.827 455.413 158.757C455.952 159.69 456.111 160.612 455.771 160.808C455.43 161.005 455.316 161.441 455.516 161.786C455.94 162.521 455.769 171.759 455.2 179.062C454.906 182.889 454.304 184.732 452.696 186.746C450.275 189.792 447.634 191.939 446.883 191.478ZM470.582 156.526C470.367 156.155 470.467 155.694 470.808 155.497C471.599 155.04 471.859 155.489 471.356 156.445C471.141 156.857 470.796 156.898 470.582 156.526ZM301.603 201.688C301.389 201.317 301.499 200.849 301.833 200.656C302.63 200.196 302.89 200.646 302.381 201.605C302.17 202.019 301.818 202.059 301.603 201.688ZM194.867 255.86C181.651 248.815 161.658 233.866 149.066 221.62C129.008 202.097 111.151 176.876 100.969 153.665C96.7505 144.038 97.5216 142.844 102.334 151.569C111.242 167.7 114.701 173.429 115.803 173.852C116.445 174.096 118.443 176.105 120.24 178.311C122.036 180.522 124.043 182.671 124.699 183.097C125.352 183.525 126.688 185.235 127.649 186.888C128.62 188.547 130.772 191.389 132.451 193.218C134.13 195.04 136.496 197.852 137.722 199.476C141.638 204.67 154.003 214.383 159.779 216.817C161.454 217.536 165.696 220.126 169.195 222.591C172.703 225.049 175.809 226.926 176.107 226.754C176.754 226.38 177.922 227.294 181.593 231.028C185.647 235.144 186.297 236.646 185.746 240.543L185.254 244.027L189.76 248.111C194.769 252.66 199.844 257.853 199.482 258.062C199.348 258.134 197.275 257.147 194.867 255.86ZM420.899 71.908C421.65 70.3953 423.075 69.5722 423.063 70.659C423.054 71.1237 422.438 71.863 421.689 72.2826C420.587 72.9135 420.438 72.8425 420.899 71.908ZM382.689 88.3987C382.045 87.2825 383.489 86.7102 384.549 87.668C384.922 88.0033 384.791 88.5337 384.25 88.8462C383.715 89.1525 383.006 88.9474 382.689 88.3987ZM181.983 173.447C181.546 173.204 181.247 172.767 181.32 172.478C181.497 171.769 183.162 171.875 183.591 172.618C184.066 173.428 182.968 173.993 181.983 173.447ZM182.727 169.688C182.256 168.872 182.696 168.619 183.654 169.152C184.061 169.377 184.112 169.736 183.745 169.948C183.389 170.154 182.928 170.036 182.727 169.688ZM177.121 167.461C174.874 166.434 174.486 165.993 175.361 165.488C175.697 165.294 176.168 165.464 176.404 165.873C176.641 166.283 177.602 166.873 178.532 167.187C179.461 167.499 179.963 167.888 179.652 168.06C179.335 168.222 178.2 167.96 177.121 167.461ZM469.138 -26.6157C468.748 -26.7258 468.018 -27.5637 467.518 -28.4667L466.612 -30.1304L468.085 -28.946C469.689 -27.6652 470.306 -26.2841 469.138 -26.6157ZM193.071 128.332C192.549 128.044 192.199 127.54 192.28 127.214C192.505 126.327 193.591 126.818 193.819 127.906C193.98 128.668 193.833 128.753 193.071 128.332ZM196.714 124.761C197.081 123.345 197.601 122.252 197.876 122.322C198.647 122.54 197.81 126.333 196.877 126.871C196.402 127.14 196.337 126.261 196.714 124.761ZM189.345 126.986C189.146 126.641 189.414 126.103 189.944 125.797C190.474 125.491 190.902 125.627 190.889 126.094C190.873 127.209 189.824 127.814 189.345 126.986ZM185.252 109.916C184.784 109.107 185.224 108.853 186.179 109.381C186.587 109.61 186.629 109.964 186.273 110.17C185.912 110.379 185.453 110.265 185.252 109.916ZM162.084 91.1727C161.614 90.3592 162.054 90.1056 163.011 90.6375C163.417 90.8624 163.469 91.2213 163.107 91.43C162.74 91.642 162.285 91.5213 162.084 91.1727ZM155.721 88.0419C154.617 87.4271 154.87 86.829 156.223 86.8958C156.948 86.9171 157.202 87.2122 156.936 87.711C156.718 88.137 156.169 88.2864 155.721 88.0419ZM91.1489 117.751C90.6463 116.881 90.5805 116.441 91.004 116.781C91.4227 117.121 91.834 117.833 91.9201 118.368C91.9996 118.903 91.6571 118.631 91.1489 117.751ZM88.2013 111.76C87.0341 110.795 84.9898 104.412 85.7201 103.99C86.2225 103.7 87.5167 106.674 88.6319 110.729C89.0043 112.063 88.8918 112.326 88.2013 111.76ZM81.9909 85.0085C81.7919 84.6637 81.902 84.2165 82.2412 84.0207C82.5805 83.8248 83.0228 83.953 83.2218 84.2978C83.4231 84.6464 83.313 85.0935 82.9737 85.2894C82.6345 85.4852 82.1922 85.3571 81.9909 85.0085ZM81.8103 80.4317C81.3539 79.6411 81.3628 75.1099 81.8121 75.2416C82.3434 75.387 82.7987 80.3284 82.3056 80.6131C82.1447 80.6983 81.9203 80.6222 81.8103 80.4317ZM207.17 2.44191C206.817 1.85102 206.72 1.01543 206.955 0.574921C207.635 -0.742447 208.217 -0.102994 208.008 1.75248C207.834 3.28791 207.729 3.36653 207.17 2.44191ZM81.2343 73.7186C81.033 73.37 81.0468 72.7474 81.2628 72.3382C81.4719 71.9254 81.8134 71.8704 82.0158 72.2209C82.2181 72.5714 82.2055 73.1959 81.9942 73.6049C81.78 74.0131 81.4366 74.0691 81.2343 73.7186ZM197.541 -1.98024C197.138 -2.67745 197.172 -3.46656 197.619 -3.7245C198.243 -4.08518 198.459 -3.80585 198.508 -2.53893C198.595 -0.475618 198.456 -0.395341 197.541 -1.98024ZM115.589 40.0518C115.409 39.5738 115.261 38.7094 115.275 38.1171C115.29 37.4328 114.948 37.2468 114.336 37.6C113.806 37.9061 113.134 37.7432 112.835 37.2269C112.489 36.6269 112.739 36.2336 113.553 36.1193C114.813 35.9302 114.317 35.1445 110.804 31.7653C110.107 31.1012 110.139 30.4757 110.897 29.7207C111.497 29.1203 111.876 28.4367 111.738 28.1986C111.604 27.9662 111.969 27.4458 112.567 27.0443C114.359 25.8115 117.51 21.0587 116.899 20.5001C116.584 20.2168 115.666 20.3078 114.869 20.7171C113.176 21.5778 111.459 20.8441 111.049 19.0895C110.89 18.4068 110.362 17.8254 109.881 17.8059C109.391 17.7839 109.305 18.2935 109.686 18.9545C110.062 19.606 110.28 20.9254 110.175 21.8904C109.871 24.6339 108.841 22.3201 108.877 18.9746C108.929 15.1425 108.289 14.359 105.77 15.1935C102.377 16.3216 102.295 16.5421 105.033 17.0945C107.542 17.6042 107.592 17.6693 107.502 19.898C107.447 21.1514 106.988 22.4148 106.491 22.7017C105.989 22.9917 105.724 23.4846 105.901 23.7913C106.079 24.098 105.747 24.8302 105.161 25.4152C104.584 25.9968 104.291 26.687 104.518 26.9472C105.595 28.197 106.266 32.1376 105.482 32.5904C104.993 32.8729 104.889 33.2678 105.243 33.4601C105.599 33.6581 106.582 33.2504 107.441 32.5619C108.86 31.4023 108.951 31.4282 108.441 32.8224C108.133 33.6583 108.089 34.7074 108.338 35.1399C108.91 36.1304 105.571 37.1716 103.401 36.6825C102.586 36.4953 101.435 36.6212 100.854 36.9562C99.9721 37.4657 99.7919 37.2776 99.7258 35.8147C99.6847 34.8529 100.1 33.6201 100.641 33.0715C101.185 32.5287 101.477 31.8141 101.286 31.4826C101.101 31.1626 100.793 31.1728 100.61 31.5246C100.426 31.8725 99.5544 31.639 98.6772 30.9974C97.7979 30.352 96.8392 29.9758 96.5315 30.1535C95.599 30.6919 94.2364 34.9075 94.7946 35.5275C95.0869 35.854 95.0157 36.4971 94.6434 36.9482C94.1729 37.5246 93.8985 37.3833 93.7515 36.5208C93.6385 35.8241 93.27 35.4171 92.9456 35.6044C92.6212 35.7917 92.0749 35.4747 91.7394 34.8937C91.1785 33.9222 91.0969 33.9693 90.6086 35.5466C90.3249 36.4851 89.7923 37.425 89.4346 37.6315C89.0731 37.8402 88.1406 40.0524 87.3627 42.541C86.2032 46.2609 85.6016 47.1924 84.0177 47.7412C82.4804 48.268 81.9898 48.9551 81.6265 51.113L81.1645 53.8231L81.0696 51.1501C81.022 49.6892 81.4699 43.8377 82.0614 38.1624C87.6628 -15.4151 112.62 -64.4761 152.084 -99.4824C167.468 -113.139 187.575 -126.727 198.884 -131.128C202.145 -132.396 204.238 -132.967 203.532 -132.379C202.819 -131.794 202.32 -130.823 202.421 -130.219C202.529 -129.575 201.753 -128.636 200.544 -127.939C198.286 -126.635 197.718 -124.974 199.716 -125.507C200.763 -125.784 200.766 -125.71 199.749 -125.044C199.082 -124.598 198.395 -123.711 198.231 -123.062C198.024 -122.26 194.057 -119.581 185.524 -114.499C170.746 -105.688 169.781 -104.976 166.586 -100.508C165.223 -98.6054 162.774 -96.0437 161.14 -94.8157C159.502 -93.5856 157.82 -92.0046 157.402 -91.2985C156.985 -90.5984 155.923 -89.3651 155.052 -88.5654C153.872 -87.4929 153.771 -87.1069 154.647 -87.0715C155.289 -87.0462 155.966 -87.2821 156.136 -87.6087C156.302 -87.9283 157.574 -88.4824 158.958 -88.8342C160.472 -89.213 161.477 -89.7804 161.492 -90.2463C161.502 -90.6787 161.157 -90.8273 160.732 -90.5822C160.243 -90.2997 160.044 -90.477 160.198 -91.0487C160.649 -92.7035 164.524 -94.867 166.631 -94.6558C168.533 -94.4641 168.608 -94.3776 167.859 -93.1881C167.061 -91.915 163.411 -88.4129 159.649 -85.3343C158.13 -84.0787 157.73 -83.2335 158.097 -81.99C158.551 -80.4285 158.276 -80.1349 154.098 -77.7225C149.287 -74.9451 144.386 -70.317 145.34 -69.4481C146.122 -68.7391 149.427 -70.2076 149.92 -71.4855C151.254 -74.9837 157.308 -79.0199 157.704 -76.6681C157.908 -75.4597 160.184 -75.5625 160.21 -76.7811C160.215 -77.2309 160.753 -77.9077 161.419 -78.2919C162.103 -78.6868 162.366 -79.4206 162.03 -80.0035C161.64 -80.6778 161.849 -81.0906 162.636 -81.2016C163.296 -81.3035 164.249 -81.6176 164.755 -81.9098C165.556 -82.3722 165.625 -82.2522 165.286 -80.9261C164.675 -78.5132 166.155 -77.9481 168.501 -79.7066C169.938 -80.7848 170.57 -80.9618 170.561 -80.3012C170.552 -79.6406 171.436 -79.8514 173.382 -80.9752C175.329 -82.099 176.496 -82.3766 177.118 -81.8723C177.613 -81.4647 178.41 -81.348 178.88 -81.6198C179.65 -82.064 180.451 -81.4901 180.486 -80.4694C180.492 -80.262 181.282 -79.9991 182.234 -79.8861C183.727 -79.7066 184.001 -79.387 184.19 -77.6167C184.303 -76.491 183.822 -74.9914 183.118 -74.3007L181.834 -73.0409L183.957 -72.4378C185.13 -72.1094 186.719 -72.1354 187.498 -72.4909C188.273 -72.8521 190.032 -73.192 191.409 -73.2428C193.378 -73.3129 194.064 -72.9597 194.631 -71.6006C195.028 -70.6514 195.104 -69.3819 194.795 -68.7869C194.381 -67.9586 194.437 -67.8056 195.052 -68.1531C195.497 -68.4051 195.861 -68.2163 195.853 -67.7467C195.844 -67.2821 196.271 -67.1453 196.798 -67.4493C197.332 -67.7575 198.009 -67.5772 198.31 -67.0572C198.608 -66.5409 198.477 -65.8891 198.006 -65.6173C196.716 -64.8724 192.903 -59.3104 193.26 -58.6913C193.435 -58.3884 192.88 -57.9077 192.034 -57.6047C191.185 -57.3075 190.932 -57.1061 191.476 -57.1406C192.202 -57.1889 192.472 -56.7859 192.53 -55.5547C192.566 -54.6455 192.341 -53.9695 192.03 -54.0571C191.722 -54.141 191.411 -53.5929 191.342 -52.8344C191.266 -52.0765 190.754 -51.0925 190.192 -50.6439C188.997 -49.692 188.83 -47.7975 189.872 -46.9436C190.507 -46.4165 189.597 -45.0477 187.601 -43.517C187.292 -43.2775 186.835 -42.5235 186.604 -41.857C186.359 -41.1867 185.785 -40.4114 185.331 -40.1413C184.382 -39.5806 182.217 -32.1866 182.74 -31.2798C182.925 -30.9598 182.378 -30.5373 181.521 -30.3523C180.522 -30.1467 180.243 -29.8685 180.75 -29.5976C181.382 -29.2437 177.302 -25.1505 175.853 -24.6926C169.844 -22.7673 167.658 -21.6093 162.758 -17.7825C160.757 -16.2104 159.364 -15.531 158.485 -15.6935C157.473 -15.879 156.803 -15.4289 155.512 -13.7055C154.594 -12.4823 153.993 -11.2158 154.173 -10.9053C154.35 -10.5986 153.653 -9.81034 152.611 -9.16575C151.575 -8.52438 149.429 -5.89622 147.841 -3.33063C144.439 2.1994 143.597 2.87634 143.074 0.536666C142.864 -0.391347 142.228 -2.08882 141.668 -3.24648C140.354 -5.92934 140.827 -9.86724 143.5 -18.3752C145.995 -26.3456 151.159 -34.6584 152.34 -32.6125C152.512 -32.3153 153.277 -32.6075 154.041 -33.2717C155.328 -34.3985 155.308 -34.4934 153.82 -34.7193C152.294 -34.9481 152.253 -35.0411 152.882 -36.6693C153.244 -37.6097 154.361 -38.7065 155.37 -39.1037C156.714 -39.6387 157.119 -40.2129 156.889 -41.2153C156.7 -42.0356 158.114 -44.8434 160.329 -48.0929C164.649 -54.3947 165.843 -57.8675 164.243 -59.507C163.386 -60.3758 163.537 -61.1893 164.92 -63.3824C165.886 -64.9077 166.913 -66.2323 167.212 -66.3233C167.514 -66.4165 168.11 -66.9844 168.541 -67.5863C169.052 -68.2901 170.417 -68.6312 172.387 -68.5544C174.854 -68.452 175.457 -68.653 175.471 -69.5783C175.518 -72.1221 169.882 -70.5854 159.273 -65.1487C157.384 -64.1874 156.691 -65.5677 157.274 -69.1045C157.624 -71.247 157.508 -71.8329 156.803 -71.4262C156.288 -71.1286 155.857 -70.4836 155.843 -69.9854C155.831 -69.3893 155.076 -69.1388 153.623 -69.2322C151.683 -69.3643 150.972 -69.0091 147.748 -66.2615C145.732 -64.5467 143.579 -62.1121 142.976 -60.8651C142.367 -59.609 141.372 -58.3008 140.761 -57.9378C140.146 -57.5825 139.982 -57.1043 140.391 -56.8756C141.638 -56.1884 143.587 -57.7786 144.761 -60.4277C145.977 -63.1816 152.644 -68.2224 154.411 -67.7233C156.197 -67.2183 155.149 -60.9133 152.618 -56.9274C151.319 -54.8824 150.335 -52.6961 150.44 -52.0783C150.544 -51.4605 150.24 -50.7287 149.765 -50.4547C149.294 -50.1828 149.1 -49.5984 149.343 -49.1568C149.824 -48.2813 146.51 -42.6596 144.999 -41.7873C144.487 -41.4919 143.828 -39.8944 143.54 -38.2428C142.315 -31.2798 142.09 -30.8143 139.318 -29.3562L136.665 -27.9617L137.583 -30.8666C138.081 -32.4699 138.407 -33.9354 138.295 -34.1297C137.911 -34.7945 136.275 -31.4627 135.476 -28.3726C135.031 -26.6652 133.813 -24.3362 132.761 -23.2082C131.438 -21.7869 130.932 -21.482 131.122 -22.2112C131.591 -24.052 130.718 -24.5714 130.168 -22.7883C129.293 -19.9462 128.74 -20.3893 128.655 -24.0099C128.604 -25.9036 129.163 -29.0965 129.885 -31.1083C130.612 -33.1204 131.006 -35.7734 130.76 -37.0032C130.511 -38.2917 130.849 -39.9018 131.573 -40.8021C133.185 -42.8174 133.259 -42.8475 133.919 -41.7045C134.684 -40.3787 136.892 -40.8101 136.939 -42.2953C136.966 -43.1486 137.108 -43.2663 137.445 -42.704C137.698 -42.2737 138.213 -42.0932 138.595 -42.3137C138.984 -42.5385 138.813 -43.1893 138.2 -43.8232C137.419 -44.6243 137.407 -45.3005 138.176 -46.2579C138.754 -46.9826 139.338 -48.2492 139.473 -49.0717C139.606 -49.8871 140.364 -50.9449 141.171 -51.4105C141.981 -51.8782 142.486 -52.5102 142.305 -52.8226C142.117 -53.1483 141.161 -52.6009 139.986 -51.4964C138.899 -50.4519 136.739 -49.0934 135.206 -48.4874C132.806 -47.5235 132.178 -46.8561 130.72 -43.6829C129.782 -41.6604 128.723 -40.0865 128.356 -40.1919C127.983 -40.2941 127.973 -41.0429 128.316 -41.8628C128.744 -42.8671 128.641 -43.3586 128.002 -43.3861C126.5 -43.4486 127.512 -47.0349 129.129 -47.3717C131.109 -47.788 131.537 -49.097 129.853 -49.5697C129.073 -49.7901 128.176 -49.8186 127.856 -49.6335C127.529 -49.4451 126.676 -49.5237 125.955 -49.8008C124.294 -50.4422 121.104 -48.6179 119.765 -46.2653C119.201 -45.2769 118.054 -43.4793 117.218 -42.2649C116.374 -41.0512 115.138 -38.3109 114.456 -36.1796C113.766 -34.0518 112.602 -30.6745 111.855 -28.6761C111.108 -26.6777 110.583 -24.2083 110.691 -23.199C110.799 -22.1896 110.243 -20.5041 109.461 -19.456C108.674 -18.4126 107.625 -16.3132 107.121 -14.7929C106.614 -13.2656 105.653 -11.1363 104.98 -10.0465C103.99 -8.47697 103.989 -8.1155 104.974 -8.27056C105.655 -8.36663 106.052 -8.73279 105.856 -9.07187C105.666 -9.40142 105.791 -9.85222 106.155 -10.062C106.518 -10.2718 107.417 -11.7409 108.165 -13.3437C108.919 -14.9447 109.793 -16.013 110.107 -15.7297C111.64 -14.3513 116.474 -19.8145 117.282 -23.8599C117.486 -24.8768 118.311 -26.0161 119.113 -26.3874C119.919 -26.759 120.955 -27.6922 121.412 -28.4589C122.389 -30.0896 125.426 -33.827 126.116 -34.2428C126.377 -34.3986 126.551 -33.6128 126.502 -32.4997C126.454 -31.3926 126.644 -30.4127 126.94 -30.3273C127.23 -30.2455 126.994 -28.7276 126.426 -26.9545C125.845 -25.1817 125.542 -23.4372 125.747 -23.0829C125.948 -22.7343 125.338 -21.3969 124.387 -20.1162C122.548 -17.6597 121.18 -13.8934 121.765 -12.88C121.961 -12.5409 123.272 -13.135 124.832 -14.2977C127.15 -16.0195 127.462 -16.1083 126.942 -14.8781C126.34 -13.4637 124.054 -6.11666 122.117 0.657902C121.575 2.53261 121.433 5.4191 121.783 7.07085C122.143 8.72998 122.157 10.0682 121.823 10.0551C121.478 10.0437 121.343 11.0512 121.52 12.3001C121.998 15.6586 120.283 20.8092 118.814 20.3974C117.934 20.1565 117.895 20.27 118.641 20.8936C119.359 21.4774 119.213 22.1888 118.123 23.4684C117.296 24.4414 116.883 25.6781 117.195 26.2191C117.509 26.7639 117.426 27.3938 117.02 27.6282C116.473 27.944 116.566 28.1392 117.389 28.3702C118.789 28.7658 119.077 30.5401 118.216 33.4725C117.841 34.7436 117.759 35.6595 118.026 35.5054C118.293 35.3512 118.174 36.3698 117.765 37.7718C116.922 40.5339 116.121 41.393 115.589 40.0518ZM93.3811 17.1622C92.9423 15.7214 92.6384 15.3406 92.4659 15.9965C92.3294 16.535 92.511 17.9541 92.8772 19.132C93.3182 20.5766 93.6288 20.9561 93.7946 20.3015C93.9326 19.757 93.7495 18.3439 93.3811 17.1622ZM90.9805 16.8058C90.5221 15.8234 90.0179 15.4211 89.7851 15.8527C89.3357 16.7268 90.6014 19.1887 91.3077 18.7809C91.5694 18.6222 91.4266 17.7369 90.9805 16.8058ZM94.147 7.00234C94.6005 4.75683 93.3805 5.13102 92.7985 7.41515C92.3529 9.16076 92.4747 9.6543 93.2385 9.21335C93.5295 9.04531 93.9318 8.05106 94.147 7.00234ZM94.5573 -0.849203C94.577 -1.93243 93.7632 -1.46257 93.0131 0.04234C92.5158 1.03046 92.5882 1.11311 93.4928 0.603545C94.0715 0.274497 94.5476 -0.373709 94.5573 -0.849203ZM98.2891 -8.25631C98.7648 -9.88979 98.7303 -11.2338 98.2115 -11.5159C97.6282 -11.837 97.6907 -11.9899 98.4089 -11.9575C99.1293 -11.9341 99.2269 -12.1504 98.695 -12.6307C97.678 -13.5446 96.8942 -12.8558 96.8964 -11.0411C96.9018 -10.2568 96.6031 -8.37249 96.2293 -6.8537C95.8632 -5.33431 95.7586 -3.74742 95.9995 -3.33024C96.4764 -2.50838 96.8429 -3.28637 98.2891 -8.25631ZM144.798 -53.5177C144.384 -53.7433 143.773 -53.7691 143.429 -53.5701C143.093 -53.3764 143.149 -53.0304 143.558 -52.8017C143.967 -52.573 144.586 -52.5465 144.927 -52.7434C145.268 -52.9404 145.209 -53.2901 144.798 -53.5177ZM165.925 -75.8419C166.819 -76.345 166.88 -76.2687 166.385 -75.2768C165.888 -74.2759 165.945 -74.1975 166.83 -74.7031C167.379 -75.0072 167.93 -75.8589 168.047 -76.5894C168.207 -77.6315 167.966 -77.8381 166.844 -77.6068C164.914 -77.1988 163.747 -75.552 164.529 -74.3298C164.945 -73.6832 165.125 -73.6754 165.032 -74.2849C164.955 -74.8296 165.357 -75.5212 165.925 -75.8419ZM144.369 -71.0185C144.89 -71.3192 145.226 -72.085 145.121 -72.7174C144.865 -74.269 144.299 -73.8358 142.737 -70.9072C141.97 -69.4582 141.787 -68.2681 142.287 -67.988C142.878 -67.6663 143.184 -67.9722 143.276 -68.9933C143.359 -69.8084 143.848 -70.7177 144.369 -71.0185ZM148.014 -80.7249C148.026 -81.1966 147.756 -81.4243 147.411 -81.2252C147.072 -81.0294 146.789 -80.4827 146.777 -80.011C146.763 -79.5432 147.042 -79.3208 147.382 -79.5167C147.721 -79.7125 148.005 -80.2602 148.014 -80.7249ZM150.334 -88.8307C150.133 -89.1793 149.549 -89.2261 149.043 -88.9339C148.537 -88.6417 148.286 -88.1133 148.487 -87.7647C148.687 -87.4199 149.27 -87.3731 149.776 -87.6652C150.282 -87.9574 150.533 -88.4859 150.334 -88.8307ZM178.517 -5.81759C178.208 -6.35287 177.441 -6.70997 176.82 -6.6178C175.346 -6.39966 174.758 -7.41879 175.957 -8.11126C176.463 -8.40345 176.635 -9.07883 176.337 -9.59506C176.033 -10.1208 175.492 -10.3774 175.127 -10.1665C174.769 -9.95995 174.487 -10.1577 174.493 -10.6055C174.498 -11.0534 175.064 -11.5072 175.747 -11.6092C176.719 -11.7538 176.745 -11.9921 175.884 -12.7119C174.657 -13.7203 175.075 -15.1708 176.907 -16.2488C177.752 -16.7496 178.154 -16.5469 178.46 -15.4719C178.776 -14.3512 179.178 -14.1868 180.207 -14.7759C180.935 -15.1965 182.774 -15.8615 184.274 -16.2299C186.791 -16.8576 187.092 -16.7421 187.987 -14.7948C189.255 -12.0245 187.895 -9.94906 182.934 -7.0644C179.875 -5.30629 178.961 -5.0499 178.517 -5.81759ZM260.507 -60.0325C259.154 -60.4118 258.923 -61.9323 260.112 -62.6183C260.935 -63.0936 261.592 -62.9093 262.082 -62.0616C262.786 -60.8455 261.861 -59.6532 260.507 -60.0325ZM216.575 -58.3933C215.759 -58.9155 214.842 -59.7853 214.525 -60.334C214.214 -60.8731 213.673 -61.1629 213.334 -60.9671C212.609 -60.5486 211.077 -63.0062 211.124 -64.5345C211.143 -65.1476 212.049 -65.9628 213.281 -66.4737C214.451 -66.9561 215.262 -67.6119 215.088 -67.9129C214.747 -68.5034 219.024 -70.6807 219.99 -70.4078C220.95 -70.1444 220.163 -67.3379 219.082 -67.1811C217.688 -66.9708 218.547 -65.6936 220.534 -65.03C222.438 -64.3868 222.645 -63.013 220.956 -62.2104C220.151 -61.8271 219.647 -62.062 219.395 -62.9478C218.771 -65.1806 217.972 -63.782 218.016 -60.5384C218.056 -57.5668 218.005 -57.487 216.575 -58.3933ZM128.713 -18.9893C128.881 -19.6626 129.264 -20.1378 129.565 -20.0526C129.866 -19.9675 129.737 -19.4205 129.259 -18.8271C128.589 -17.9725 128.479 -18.0082 128.713 -18.9893ZM256.128 -93.7283C254.185 -94.4734 254.737 -95.0077 256.799 -94.3772C257.761 -94.0766 258.306 -93.6979 258.007 -93.5256C257.705 -93.3511 256.86 -93.44 256.128 -93.7283ZM228.516 -77.8804C227.883 -77.7994 227.724 -78.2716 228.019 -79.4525C228.311 -80.6323 228.758 -81.0705 229.513 -80.8969C230.109 -80.7636 230.596 -80.3183 230.591 -79.9067C230.583 -79.493 230.889 -79.5149 231.263 -79.9543C231.697 -80.4584 231.463 -81.4283 230.603 -82.6359C229.294 -84.4611 229.316 -84.5297 231.318 -84.8345C232.812 -85.0595 233.395 -85.4192 233.402 -86.1315C233.41 -86.8371 233.649 -86.9879 234.245 -86.6567C234.704 -86.4059 234.764 -86.0191 234.382 -85.7986C234.001 -85.5781 234.029 -85.2113 234.442 -84.9847C234.854 -84.763 234.828 -84.3592 234.388 -84.0976C233.806 -83.7488 233.934 -83.5994 234.863 -83.5411C235.908 -83.4738 235.893 -83.3105 234.809 -82.6717C234.08 -82.2462 233.135 -82.1705 232.71 -82.509C232.227 -82.8879 232.147 -82.7224 232.494 -82.0489C233.307 -80.4864 231.143 -78.2188 228.516 -77.8804ZM111.88 -19.1966C111.888 -19.6103 112.428 -20.4732 113.082 -21.1173C114.232 -22.2413 114.254 -22.2208 113.608 -20.6769C112.864 -18.8912 111.861 -18.0272 111.88 -19.1966ZM123.96 -34.7277C124.708 -36.2316 125.527 -36.7046 125.504 -35.6193C125.495 -35.1546 125.022 -34.4977 124.445 -34.1697C123.534 -33.6589 123.472 -33.7352 123.96 -34.7277ZM125.217 -39.6776C125.018 -40.0224 125.271 -40.5568 125.777 -40.849C126.283 -41.1412 126.869 -41.0887 127.067 -40.7458C127.265 -40.4029 127.017 -39.8687 126.511 -39.5765C126.003 -39.2803 125.416 -39.3328 125.217 -39.6776ZM173.877 -82.6527C173.964 -82.9821 174.481 -83.3111 175.034 -83.3891C175.633 -83.4685 175.583 -83.2339 174.877 -82.7909C174.244 -82.3818 173.794 -82.3254 173.877 -82.6527ZM169.24 -81.1287C168.446 -80.9879 167.974 -81.1675 168.189 -81.5277C168.74 -82.4656 173.964 -85.7607 173.787 -85.0645C173.48 -83.8507 170.619 -81.3735 169.24 -81.1287ZM171.647 -86.4807C170.016 -86.2656 169.883 -87.5705 171.477 -88.2059C172.302 -88.5323 173.078 -88.4724 173.19 -88.0803C173.452 -87.2028 172.921 -86.6597 171.647 -86.4807ZM162.609 -81.8291C162.494 -82.0292 162.623 -83.2568 162.91 -84.55C163.279 -86.2517 164.243 -87.5272 166.368 -89.0838C167.996 -90.2782 169.942 -91.8613 170.697 -92.5996C171.716 -93.6045 172.209 -93.7011 172.606 -93.0134C173.337 -91.7485 172.484 -89.4835 171.304 -89.5333C170.788 -89.558 169.182 -88.6184 167.746 -87.4491C165.66 -85.7543 165.433 -85.3642 166.656 -85.524C168.042 -85.7046 168.041 -85.6409 166.672 -84.7844C165.838 -84.2645 164.634 -83.3103 163.989 -82.6588C163.34 -82.0021 162.723 -81.6329 162.609 -81.8291ZM214.989 -127.566C215.307 -127.979 216.139 -128.472 216.828 -128.658C217.522 -128.843 217.26 -128.504 216.25 -127.903C215.238 -127.301 214.67 -127.146 214.989 -127.566Z" fill="#533BC4"/>
<defs>
<filter id="filter0_d_251_441" x="71.1108" y="-156.889" width="435.071" height="435.071" filterUnits="userSpaceOnUse" color-interpolation-filters="sRGB">
<feFlood flood-opacity="0" result="BackgroundImageFix"/>
<feColorMatrix in="SourceAlpha" type="matrix" values="0 0 0 0 0 0 0 0 0 0 0 0 0 0 0 0 0 0 127 0" result="hardAlpha"/>
<feOffset dx="-4"/>
<feGaussianBlur stdDeviation="2"/>
<feComposite in2="hardAlpha" operator="out"/>
<feColorMatrix type="matrix" values="0 0 0 0 0.717647 0 0 0 0 0.67451 0 0 0 0 0.933333 0 0 0 0.2 0"/>
<feBlend mode="normal" in2="BackgroundImageFix" result="effect1_dropShadow_251_441"/>
<feBlend mode="normal" in="SourceGraphic" in2="effect1_dropShadow_251_441" result="shape"/>
</filter>
<radialGradient id="paint0_radial_251_441" cx="0" cy="0" r="1" gradientUnits="userSpaceOnUse" gradientTransform="translate(362.728 67.1325) rotate(170.805) scale(276.127)">
<stop offset="0.854167" stop-color="#7357F5"/>
<stop offset="1" stop-color="#9580F8"/>
</radialGradient>
</defs>
</svg>
