<svg width="395" height="310" viewBox="0 0 395 310" fill="none" xmlns="http://www.w3.org/2000/svg">
<g clip-path="url(#clip0_553_217)">
<path d="M59.9812 304.615C55.0757 307.031 49.7367 308.459 44.2727 308.814C38.8088 309.169 33.3281 308.445 28.1474 306.684C22.9666 304.923 18.1885 302.159 14.089 298.553C9.98955 294.947 6.64997 290.569 4.26321 285.673C1.81186 280.794 0.360458 275.48 -0.00675357 270.039C-0.373965 264.598 0.35033 259.138 2.12409 253.978C3.89785 248.817 6.68573 244.058 10.3259 239.976C13.9661 235.895 18.3861 232.572 23.3293 230.202L228.912 130.2C233.814 127.781 239.149 126.351 244.611 125.992C250.072 125.632 255.551 126.351 260.731 128.107C265.912 129.862 270.691 132.62 274.792 136.22C278.894 139.82 282.238 144.192 284.63 149.083C287.064 153.953 288.504 159.254 288.866 164.679C289.228 170.105 288.504 175.548 286.737 180.695C284.97 185.841 282.194 190.589 278.57 194.664C274.946 198.739 270.546 202.06 265.623 204.437L59.9812 304.615Z" fill="#8F67FF"/>
<path d="M20.724 78.2547C15.9349 75.3501 11.7756 71.5166 8.49135 66.9802C5.20705 62.4438 2.86409 57.2961 1.6005 51.8405C0.336898 46.3849 0.178213 40.7317 1.13379 35.2138C2.08937 29.696 4.13988 24.4251 7.16454 19.7117C13.463 10.1729 23.2329 3.46437 34.3993 1.0107C45.5657 -1.44298 57.249 0.551493 66.9682 6.57056L268.643 131.411C273.444 134.304 277.615 138.132 280.909 142.668C284.203 147.203 286.552 152.354 287.816 157.814C289.081 163.274 289.236 168.932 288.271 174.453C287.307 179.974 285.243 185.246 282.202 189.954C275.914 199.505 266.143 206.223 254.972 208.678C243.801 211.133 232.113 209.129 222.398 203.095L20.724 78.2547Z" fill="#533BC3"/>
<path d="M349.17 127.268C374.481 127.268 395 106.755 395 81.4512C395 56.1476 374.481 35.6349 349.17 35.6349C323.859 35.6349 303.341 56.1476 303.341 81.4512C303.341 106.755 323.859 127.268 349.17 127.268Z" fill="#6691FF"/>
</g>
<defs>
<clipPath id="clip0_553_217">
<rect width="395" height="310" fill="white"/>
</clipPath>
</defs>
</svg>
