<svg width="20" height="19" viewBox="0 0 20 19" fill="none" xmlns="http://www.w3.org/2000/svg">
<path d="M8.22377 0C8.36839 0 8.50268 0.0295575 8.62664 0.0689653C8.36323 0.236452 8.21861 0.458128 8.14629 0.709358C8.14111 0.743841 8.1308 0.768472 8.12563 0.802953C8.12045 0.832511 8.1153 0.862067 8.1153 0.891624C8.09463 1.32512 8.2341 1.37931 8.33223 1.63546C8.48202 1.96551 8.4407 2.32019 8.25993 2.60591C8.24443 2.64039 8.22377 2.6798 8.19794 2.71428C8.39422 1.46798 7.30439 1.28079 7.10296 0.891624C7.08746 0.551723 7.38187 0.325122 7.6143 0.167487C7.83639 0.0394089 8.03783 0 8.22377 0ZM6.58129 0.280788C6.60196 0.394088 6.58646 0.364531 6.59161 0.423645C6.59678 0.463053 6.59678 0.512315 6.60193 0.551723C6.61226 0.591132 6.6226 0.63054 6.63809 0.669951C6.64841 0.709358 6.66392 0.748767 6.67941 0.788175C6.70008 0.827586 6.71557 0.862067 6.73623 0.901476C6.75172 0.921188 6.76205 0.940884 6.77754 0.96059C6.78787 0.975368 6.79821 0.990146 6.80853 1.00492C6.83436 1.03941 6.86019 1.07389 6.88601 1.10345C6.917 1.133 6.94283 1.16748 6.97898 1.19212V1.19705C7.00997 1.22168 7.04096 1.25124 7.07712 1.27587C7.18558 1.35468 7.30954 1.4138 7.42318 1.48769C7.45933 1.51232 7.49549 1.53202 7.52647 1.56158C7.56263 1.58621 7.59362 1.61084 7.62461 1.6404C7.66077 1.66995 7.68659 1.69951 7.71758 1.73399C7.74341 1.76355 7.7744 1.79803 7.79506 1.83252C7.82088 1.867 7.84671 1.90148 7.86737 1.93596C7.88804 1.97537 7.90352 2.00986 7.92418 2.04926C7.93968 2.08867 7.95517 2.12315 7.9655 2.16256C7.981 2.2069 7.99133 2.24631 8.00166 2.28572C8.00683 2.30543 8.00683 2.33005 8.01198 2.34976C8.01716 2.36947 8.01716 2.38916 8.0223 2.40887C8.0223 2.44828 8.02747 2.49261 8.02747 2.53202C8.02747 2.56158 8.02747 2.59113 8.0223 2.62069C8.0223 2.6601 8.01713 2.69951 8.00681 2.74384C8.00164 2.78325 7.99131 2.82266 7.98098 2.86207C7.96549 2.90148 7.95516 2.94089 7.93966 2.9803C7.92934 3.00493 7.91384 3.02956 7.9035 3.04926L9.09146 2.61084C9.2929 2.55665 9.48917 2.50739 9.69061 2.46306C9.79907 2.43843 9.90754 2.41379 10.016 2.38916C10.3259 2.33005 10.641 2.28572 10.956 2.25616C10.9664 2.25616 10.9715 2.25123 10.9819 2.25123C11.2918 2.22167 11.5965 2.20689 11.9064 2.20689C12.1337 2.20689 12.3609 2.21674 12.583 2.23152C12.8981 2.25124 13.2132 2.29064 13.5282 2.3399C13.6057 2.34974 13.6832 2.36453 13.7607 2.37931C13.9208 2.40886 14.0757 2.44335 14.2255 2.47783C14.303 2.49754 14.3805 2.51724 14.4579 2.53694C14.5354 2.5665 14.6077 2.60098 14.68 2.63054C14.7368 2.65517 14.7937 2.6798 14.8505 2.70443C14.8608 2.70936 14.8711 2.70936 14.8763 2.71427C14.9279 2.7389 14.9744 2.75861 15.0209 2.78324C15.0364 2.78817 15.0467 2.79308 15.0571 2.79802C15.1139 2.82265 15.1707 2.8522 15.2172 2.87683C15.2533 2.89161 15.2895 2.91132 15.3205 2.9261C15.336 2.93594 15.3566 2.94581 15.367 2.95073C15.4135 2.97536 15.4599 2.99999 15.5013 3.02462C15.5478 3.04925 15.5891 3.07388 15.6252 3.09851C15.6614 3.12314 15.6975 3.14284 15.7285 3.16747C15.7337 3.17241 15.7389 3.17241 15.744 3.17732C15.775 3.19703 15.8112 3.22165 15.8422 3.24629C15.8422 3.24629 15.8473 3.25122 15.8525 3.25613C15.8783 3.27584 15.9041 3.29554 15.93 3.31524C15.9403 3.32017 15.9506 3.33002 15.9609 3.33495C15.9868 3.35467 16.0126 3.37929 16.0384 3.39899C16.0436 3.40884 16.0539 3.41377 16.0591 3.41871C16.0901 3.44826 16.1211 3.47289 16.1521 3.50245C16.1572 3.50245 16.1572 3.50738 16.1624 3.51229C16.1934 3.53692 16.2244 3.56648 16.2554 3.59604C16.2605 3.60097 16.2605 3.60588 16.2657 3.60588C16.2915 3.63051 16.3173 3.65514 16.3432 3.6847C16.3535 3.69454 16.369 3.70441 16.3793 3.71426C16.4051 3.74381 16.4361 3.77337 16.4671 3.80293C16.4723 3.81277 16.4826 3.8177 16.4878 3.82756C16.5291 3.86697 16.5653 3.90637 16.6066 3.94578C16.6117 3.95072 16.6169 3.95563 16.6221 3.96056C16.7047 4.0443 16.7925 4.12805 16.8855 4.20194C16.9785 4.28076 17.0766 4.35465 17.1747 4.41869C17.278 4.48765 17.3762 4.54677 17.4846 4.60588C17.5879 4.66006 17.6964 4.70933 17.81 4.75366C17.9185 4.798 18.0321 4.83741 18.1458 4.87189C18.3627 4.91622 18.5848 4.99997 18.7759 5.01474C18.8172 5.01474 18.8637 5.02459 18.905 5.02952C18.9515 5.03937 18.9928 5.04924 19.0341 5.05908C19.0755 5.07386 19.1168 5.08864 19.1581 5.10342C19.1994 5.11819 19.2407 5.1379 19.2821 5.1576C19.3182 5.18223 19.3595 5.20194 19.3957 5.22657C19.4318 5.2512 19.468 5.28075 19.499 5.31031C19.5351 5.33494 19.5713 5.36942 19.6023 5.39898C19.6333 5.43347 19.6643 5.46302 19.6901 5.4975C19.7159 5.53691 19.7469 5.57139 19.7676 5.6108C19.7934 5.64529 19.8192 5.68469 19.8399 5.7241C19.8606 5.76844 19.8812 5.80785 19.8967 5.85218C19.9122 5.89159 19.9277 5.93593 19.9432 5.98026C19.9535 6.01967 19.9639 6.05908 19.969 6.09848C19.969 6.10342 19.9742 6.10833 19.9742 6.11326C19.9845 6.1576 19.9845 6.21672 19.9897 6.24627C19.9949 6.28075 20 6.31031 20 6.34479C20 6.36451 20 6.38913 19.9948 6.40883C19.9897 6.44332 19.9845 6.47287 19.9742 6.50243C19.9638 6.53198 19.9535 6.56154 19.938 6.5911V6.59603C19.9225 6.62559 19.9018 6.65514 19.8812 6.6847C19.8605 6.71426 19.8399 6.74381 19.814 6.77337C19.7882 6.798 19.7572 6.82756 19.7262 6.85219C19.6952 6.88174 19.6643 6.90637 19.6281 6.93101C19.5041 7.03445 19.4732 7.06894 19.313 7.14775C19.2872 7.16253 19.2614 7.17239 19.2304 7.18716C19.2252 7.18716 19.2201 7.1921 19.2149 7.1921C19.2149 7.20194 19.2149 7.20687 19.2097 7.21673C19.2046 7.25614 19.1942 7.29554 19.1839 7.33495C19.1736 7.37929 19.1581 7.4187 19.1426 7.45318C19.1271 7.48274 19.1168 7.51229 19.1013 7.54185C19.0961 7.5517 19.0909 7.56156 19.0858 7.56648C19.0651 7.60589 19.0444 7.64038 19.0238 7.67486C18.998 7.70934 18.9721 7.74382 18.9463 7.7783C18.9205 7.80786 18.8895 7.84234 18.8585 7.8719C18.8275 7.90146 18.7965 7.92609 18.7604 7.95564C18.7604 7.95564 18.7552 7.96058 18.75 7.96058C18.7191 7.98521 18.6881 8.00984 18.6571 8.02954C18.6209 8.05418 18.5848 8.07388 18.5434 8.09359C18.5073 8.1133 18.466 8.13299 18.4246 8.14777C18.3937 8.16255 18.3575 8.1724 18.3213 8.18226C18.3162 8.1872 18.311 8.1872 18.3007 8.1921C18.28 8.19704 18.2542 8.20195 18.2335 8.20688C18.249 8.47289 18.2542 8.72412 18.2129 8.81279C18.1664 8.91131 17.9391 8.61082 17.7119 8.26599C17.7428 8.60589 17.7635 9.00491 17.7119 9.12313C17.655 9.24628 17.3451 8.86205 17.0766 8.43841C13.4146 7.63053 10.0728 10.0443 9.72156 13.4532C9.7887 12.9212 10.4757 12.6256 10.7907 12.6995C10.9457 13.064 11.2091 13.532 11.6326 13.8226C11.5965 13.4975 11.6119 13.1625 11.6843 12.8374C11.7979 13.2906 12.02 13.7143 12.3247 14.0788C12.8154 14.1133 13.3061 13.8867 13.5643 13.5468C13.585 13.532 13.5902 13.5024 13.6057 13.4827C13.6212 13.4482 13.6367 13.4138 13.647 13.3793C13.6625 13.3448 13.6728 13.3103 13.678 13.2758C13.6831 13.2413 13.6831 13.2069 13.6831 13.1675C13.6831 13.1428 13.6831 13.1182 13.6831 13.0936C13.678 13.0591 13.6676 13.0246 13.6573 12.9901C13.647 12.9556 13.6367 12.9212 13.6212 12.8867C13.6005 12.8522 13.585 12.8177 13.5592 12.7832C13.4714 12.5468 13.4714 12.3547 13.6315 12.2414C13.6625 12.2216 13.6935 12.2069 13.7296 12.1921C13.7503 12.1872 13.7761 12.1773 13.7968 12.1724C13.8123 12.1674 13.8226 12.1625 13.8381 12.1576C13.8743 12.1478 13.9104 12.1379 13.9466 12.133C13.9827 12.1231 14.0189 12.1182 14.055 12.1182C14.0912 12.1133 14.1325 12.1083 14.1687 12.1083C14.1945 12.1083 14.2203 12.1133 14.2461 12.1133C14.2875 12.1133 14.3236 12.1182 14.3598 12.1281C14.3959 12.133 14.4321 12.1379 14.4682 12.1478C14.5044 12.1576 14.5405 12.1675 14.5767 12.1823C14.6128 12.197 14.6438 12.2118 14.68 12.2266C14.711 12.2414 14.742 12.2611 14.7781 12.2758C15.9816 13.0246 15.2636 14.7783 14.4424 15.2857C14.7523 15.3399 15.0674 15.4039 15.1552 15.468C15.1604 15.4729 15.1655 15.4778 15.1655 15.4778C14.9434 15.6059 14.711 15.7143 14.4682 15.8079C14.1377 15.9113 13.7864 16.0049 13.6315 16.0443V16.0492C13.2028 16.133 12.7689 16.1625 12.3299 16.1379C10.0418 15.9852 8.16688 14.3251 7.82599 12.1379C7.81567 12.1823 7.80532 12.2217 7.795 12.266C7.7795 12.3547 7.75885 12.4483 7.74852 12.5419V12.5468C7.73819 12.5911 7.73302 12.6355 7.72785 12.6749V12.6946C7.72267 12.7389 7.71752 12.7833 7.71752 12.8227C7.71235 12.8769 7.7072 12.931 7.7072 12.9852V13.064C7.7072 13.0887 7.70203 13.1182 7.70203 13.1429C7.70203 13.1724 7.7072 13.202 7.7072 13.2315V13.3005C7.7072 13.335 7.71238 13.3645 7.71238 13.399C7.71238 13.4187 7.71238 13.4384 7.71755 13.4631C7.71755 13.4975 7.72272 13.532 7.72272 13.5714C7.7279 13.5862 7.7279 13.601 7.7279 13.6158C7.73308 13.6552 7.73823 13.6897 7.7434 13.7291C7.7434 13.7438 7.7434 13.7586 7.74857 13.7734C7.75375 13.8227 7.76407 13.867 7.76924 13.9163V13.9212V13.9261C7.77956 13.9705 7.78991 14.0197 7.80023 14.0641V14.0788C7.81055 14.1232 7.8209 14.1675 7.83122 14.2118C7.83122 14.2168 7.83639 14.2266 7.83639 14.2316C7.84671 14.2759 7.85706 14.3202 7.87254 14.3646V14.3793C7.88804 14.4286 7.90353 14.4729 7.91387 14.5173C7.91904 14.5222 7.91904 14.5271 7.91904 14.5271C7.93453 14.5764 7.95003 14.6256 7.96552 14.6749C7.98619 14.7242 8.00168 14.7685 8.02234 14.8178C8.043 14.867 8.05849 14.9163 8.07915 14.9606C8.09982 15.0099 8.12047 15.0542 8.14113 15.1035H8.14631C8.16698 15.1478 8.18764 15.1971 8.21346 15.2414C8.21863 15.2562 8.22378 15.266 8.22896 15.2759C8.23413 15.2808 8.23413 15.2857 8.23928 15.2907C8.575 15.936 9.07085 16.5025 9.69065 16.9458C9.73197 16.9705 9.77329 17 9.81461 17.0296C9.82493 17.0394 9.84044 17.0443 9.85077 17.0542C9.88692 17.0788 9.92308 17.1035 9.96439 17.1281L9.9489 17.1576H9.94373C9.87142 17.1478 9.79911 17.1379 9.7268 17.1281H9.72163C9.58733 17.1084 9.45304 17.0838 9.31875 17.0591C9.2826 17.0542 9.24128 17.0443 9.20512 17.0345C9.1793 17.0296 9.15864 17.0247 9.13281 17.0197C9.09666 17.0148 9.0605 17.0049 9.02434 17C8.99336 16.9902 8.96237 16.9852 8.93138 16.9754C8.41487 16.8571 7.91386 16.6946 7.43352 16.5025C8.25476 17.5714 9.35491 18.4335 10.641 19C10.047 18.9606 9.45304 18.867 8.87973 18.7094C6.79822 18.1232 5.04727 16.7882 3.99877 14.9902C4.21054 16.1281 4.68572 17.2118 5.38816 18.1576C4.88716 17.8424 4.42747 17.4778 4.0091 17.064C2.85214 15.9113 2.09287 14.4483 1.83463 12.8769C1.65901 13.6552 1.60736 14.4581 1.68484 15.2512C-2.04431 10.2907 1.37494 5.14781 2.80565 3.79314C2.81083 3.78329 2.81597 3.77836 2.81597 3.76851C2.82115 3.77344 2.82115 3.77344 2.82115 3.77835C2.82115 3.77342 2.82115 3.77342 2.82632 3.76851C2.82632 3.82762 2.83149 3.88673 2.83665 3.94585C2.85214 4.05915 2.86763 4.16752 2.8883 4.2759C2.91412 4.38427 2.94511 4.49264 2.9761 4.60102C3.01226 4.70446 3.05357 4.81284 3.10006 4.91629C3.14655 5.01481 3.1982 5.11826 3.25501 5.21678C3.31183 5.31038 3.37381 5.4089 3.44095 5.49757C3.5081 5.59116 3.58041 5.67983 3.65272 5.76357C3.7302 5.85225 3.81284 5.93106 3.89548 6.00988C3.94713 6.05422 3.99361 6.09363 4.04527 6.13303C4.08658 6.16752 4.12274 6.19707 4.16406 6.23155C4.25703 6.30052 4.35 6.36456 4.4533 6.42367C4.55144 6.48279 4.65473 6.5419 4.75803 6.59116C4.8665 6.64042 4.97497 6.68476 5.08343 6.72909C5.1919 6.7685 5.30553 6.80298 5.41916 6.83254C5.53279 6.8621 5.65159 6.88673 5.76522 6.90643C5.88401 6.92614 6.00281 6.93599 6.11644 6.94584C6.19908 6.95077 6.28172 6.95569 6.36436 6.95569C6.48316 6.95569 6.60195 6.94584 6.71558 6.93597C6.83438 6.92613 6.95317 6.91134 7.0668 6.88671C7.1856 6.867 7.29923 6.83745 7.41286 6.80297H7.41803C7.3044 6.79312 7.19077 6.78325 7.07714 6.76356C6.95835 6.74385 6.84472 6.71922 6.73108 6.68967C6.61745 6.66011 6.50382 6.62563 6.39536 6.58622C6.28173 6.54681 6.17326 6.49755 6.06996 6.44829C5.96149 6.39902 5.86336 6.34484 5.76006 6.28573C5.66192 6.22169 5.56379 6.15765 5.47082 6.08868C5.37785 6.01972 5.29004 5.94583 5.2074 5.86701C5.11959 5.79312 5.04212 5.70937 4.96464 5.62563C4.88717 5.53696 4.81486 5.44829 4.74771 5.35962C4.73739 5.34484 4.72704 5.32514 4.71672 5.31036C4.66507 5.23154 4.61342 5.15272 4.56694 5.07391C4.51012 4.97538 4.45847 4.87686 4.41199 4.77342C4.3655 4.66997 4.32418 4.56652 4.28802 4.45815C4.25187 4.3547 4.22604 4.24632 4.20022 4.13795C4.17955 4.02465 4.1589 3.91627 4.14857 3.8079C4.13825 3.6946 4.1279 3.5813 4.1279 3.47293C4.1279 3.39411 4.13308 3.31529 4.13822 3.23647C4.14855 3.12317 4.16405 3.0148 4.17954 2.90642C4.20021 2.79312 4.22603 2.68475 4.25702 2.57638C4.29317 2.47293 4.32933 2.36455 4.37065 2.26111C4.41197 2.15766 4.46362 2.05421 4.51527 1.95569C4.57209 1.85717 4.6289 1.75864 4.69088 1.66505C4.75803 1.57145 4.82517 1.48278 4.89748 1.39411C4.97496 1.31037 5.05243 1.22663 5.13508 1.14288C5.1764 1.10347 5.22288 1.05914 5.26937 1.01973C5.50179 0.847316 5.74455 0.684754 5.9873 0.536972C6.02346 0.51726 6.05445 0.502489 6.0906 0.48771C6.26105 0.384263 6.42118 0.330047 6.58129 0.280788Z" fill="#E0234E"/>
</svg>
