<svg width="16" height="20" viewBox="0 0 16 20" fill="none" xmlns="http://www.w3.org/2000/svg">
<path fill-rule="evenodd" clip-rule="evenodd" d="M14.4077 15.8643L5.73169 18.5205C5.46668 18.602 5.2127 18.3644 5.26827 18.0877L8.36782 2.72206C8.42575 2.43488 8.80937 2.3894 8.93055 2.65536L14.6696 15.2703C14.6951 15.3266 14.7084 15.3878 14.7087 15.4499C14.7091 15.512 14.6963 15.5735 14.6714 15.6299C14.6465 15.6864 14.6101 15.7367 14.5646 15.7771C14.5191 15.8176 14.4654 15.8473 14.4077 15.8643ZM15.8957 15.2377L9.25113 0.631253C9.1686 0.451245 9.04052 0.297734 8.88049 0.187019C8.72045 0.0763048 8.53444 0.0125211 8.34221 0.00244134C8.1498 -0.0109006 7.95754 0.0306268 7.78634 0.122507C7.61515 0.214386 7.47157 0.353101 7.37122 0.523561L0.164676 12.6064C0.054937 12.789 -0.00217068 13.0003 6.31095e-05 13.2153C0.0022969 13.4303 0.0637793 13.6403 0.177286 13.8204L3.70007 19.4681C3.83376 19.6796 4.02975 19.841 4.25898 19.9282C4.48821 20.0154 4.73849 20.0238 4.97272 19.9523L15.1988 16.8217C15.3528 16.775 15.4952 16.6946 15.6166 16.586C15.7379 16.4775 15.8353 16.3432 15.9022 16.1922C15.9683 16.0422 16.002 15.8791 16.0009 15.7142C15.9999 15.5493 15.9636 15.3869 15.8957 15.2377Z" fill="#51A4F1"/>
</svg>
