<svg width="20" height="21" viewBox="0 0 20 21" fill="none" xmlns="http://www.w3.org/2000/svg">
<path d="M19.9363 3.60286L10.8817 20.0346C10.6947 20.3739 10.2144 20.3759 10.0247 20.0383L0.79045 3.60444C0.583724 3.23654 0.893718 2.79091 1.30452 2.86542L10.3689 4.50969C10.4267 4.52018 10.4859 4.52008 10.5437 4.50939L19.4185 2.86778C19.828 2.79205 20.1394 3.23423 19.9363 3.60286Z" fill="url(#paint0_linear_114_304)"/>
<path d="M14.6867 0.70874L7.98601 2.04122C7.87588 2.06312 7.79434 2.15784 7.78769 2.27151L7.37551 9.33642C7.36581 9.50283 7.51639 9.63198 7.67643 9.59452L9.54201 9.15758C9.71656 9.11673 9.87428 9.27275 9.8384 9.45089L9.28414 12.2053C9.24684 12.3907 9.41834 12.5492 9.59673 12.4942L10.749 12.1389C10.9276 12.0839 11.0993 12.2429 11.0615 12.4284L10.1807 16.755C10.1255 17.0256 10.4803 17.1732 10.6282 16.9412L10.727 16.7862L16.1871 5.72775C16.2786 5.54259 16.1209 5.33146 15.9205 5.3707L14.0002 5.74682C13.8197 5.78213 13.6662 5.61158 13.7171 5.43241L14.9705 1.023C15.0215 0.84352 14.8674 0.672822 14.6867 0.70874Z" fill="url(#paint1_linear_114_304)"/>
<defs>
<linearGradient id="paint0_linear_114_304" x1="0.56499" y1="2.27818" x2="12.0506" y2="17.6483" gradientUnits="userSpaceOnUse">
<stop stop-color="#41D1FF"/>
<stop offset="1" stop-color="#BD34FE"/>
</linearGradient>
<linearGradient id="paint1_linear_114_304" x1="9.84864" y1="1.07051" x2="11.9469" y2="15.2536" gradientUnits="userSpaceOnUse">
<stop stop-color="#FFEA83"/>
<stop offset="0.0833333" stop-color="#FFDD35"/>
<stop offset="1" stop-color="#FFA800"/>
</linearGradient>
</defs>
</svg>
