<svg xmlns="http://www.w3.org/2000/svg" width="290.68" height="53.97" viewBox="0 0 290.68 53.97"><g id="Layer_2" data-name="Layer 2"><g id="Layer_1-2" data-name="Layer 1"><path d="M25,0a26.26,26.26,0,0,1,6.87.76,14.91,14.91,0,0,1,5.33,2.1,8.83,8.83,0,0,1,3.44,4A15.16,15.16,0,0,1,41.76,13a10.59,10.59,0,0,1-1.91,6.67A13.78,13.78,0,0,1,34.51,24,12.69,12.69,0,0,1,41.76,29a15.76,15.76,0,0,1,1,15.26A12.64,12.64,0,0,1,38.52,49a19.81,19.81,0,0,1-6.1,2.67,28.5,28.5,0,0,1-6.87,1H0V0ZM23.45,21.36a8.62,8.62,0,0,0,5.15-1.53c1.34-.95,1.91-2.67,1.91-4.77A7.32,7.32,0,0,0,29.94,12a5.42,5.42,0,0,0-1.72-1.9,9.49,9.49,0,0,0-2.48-1,15.41,15.41,0,0,0-3-.19H11.63v12.4ZM24,43.86a16.84,16.84,0,0,0,3.24-.38,6.58,6.58,0,0,0,2.67-1.15,6.93,6.93,0,0,0,1.91-2.09,9.18,9.18,0,0,0,.76-3.44c0-2.67-.76-4.57-2.29-5.91a10.09,10.09,0,0,0-6.1-1.71H11.63V43.86Zm36.8-.19C62.36,45.19,64.64,46,67.7,46a10.49,10.49,0,0,0,5.53-1.53A7.77,7.77,0,0,0,76.09,41h9.34c-1.53,4.57-3.81,7.82-6.87,9.91A20.33,20.33,0,0,1,67.5,54a22.5,22.5,0,0,1-8.2-1.53,15.36,15.36,0,0,1-6.1-4.2A15.1,15.1,0,0,1,49.39,42a22.52,22.52,0,0,1-1.34-8.2,22.17,22.17,0,0,1,1.34-8,20.61,20.61,0,0,1,4-6.48,19.48,19.48,0,0,1,6.11-4.2,21.39,21.39,0,0,1,8-1.52,17.75,17.75,0,0,1,8.59,1.91A15.58,15.58,0,0,1,82,20.59a23.2,23.2,0,0,1,3.43,7.25,40.15,40.15,0,0,1,.38,8.39H58.16a11,11,0,0,0,2.67,7.44Zm12-20a8.22,8.22,0,0,0-5.91-2.1,9.1,9.1,0,0,0-4.19.95,9.72,9.72,0,0,0-2.67,2.1,5,5,0,0,0-1.34,2.67,13.05,13.05,0,0,0-.38,2.48H75.51a10.06,10.06,0,0,0-2.67-6.1ZM100.68,0V19.83h.2A11.25,11.25,0,0,1,106,15.06a14.5,14.5,0,0,1,6.11-1.52A17.19,17.19,0,0,1,119,14.68a10.49,10.49,0,0,1,4.2,3.24,13.12,13.12,0,0,1,2.09,5,32.19,32.19,0,0,1,.58,6.49V52.82H115.37V31.27c0-3.24-.57-5.53-1.53-7s-2.67-2.29-5.15-2.29c-2.86,0-5,.95-6.1,2.48-1.33,1.71-1.91,4.57-1.91,8.39v20H90.2V0Zm32.8,20.21a14.07,14.07,0,0,1,4.2-4,18.35,18.35,0,0,1,5.72-2.1,35.2,35.2,0,0,1,6.29-.57c1.91,0,3.82.19,5.92.38a15.81,15.81,0,0,1,5.33,1.52,11.12,11.12,0,0,1,4,3.25,9.52,9.52,0,0,1,1.52,5.53v20a40.45,40.45,0,0,0,.38,5,8.1,8.1,0,0,0,1.34,3.62H157.51a4.69,4.69,0,0,1-.76-1.71,6.56,6.56,0,0,1-.19-1.91,14.73,14.73,0,0,1-5.91,3.62,21.44,21.44,0,0,1-6.87,1,15.38,15.38,0,0,1-5.15-.76,12.24,12.24,0,0,1-4.19-2.1,10.77,10.77,0,0,1-2.86-3.62,13.59,13.59,0,0,1-1-5.15,11,11,0,0,1,1.15-5.34,12.35,12.35,0,0,1,2.86-3.43,14.38,14.38,0,0,1,4.19-1.91,35.31,35.31,0,0,1,4.77-.95l4.58-.57c1.52-.19,2.86-.38,4-.57A10.14,10.14,0,0,0,155,28a2.72,2.72,0,0,0,.95-2.48,5.07,5.07,0,0,0-.57-2.67,5.78,5.78,0,0,0-1.52-1.52,7,7,0,0,0-2.1-.76,11.2,11.2,0,0,0-2.67-.2,7.14,7.14,0,0,0-4.77,1.34,6.41,6.41,0,0,0-2.09,4.38H131.77a11.43,11.43,0,0,1,1.71-5.91Zm20.79,14.88c-.57.19-1.34.38-2.1.57s-1.53.19-2.48.38c-.76.19-1.71.19-2.48.38l-2.29.57a4.46,4.46,0,0,0-1.9,1,5,5,0,0,0-1.34,1.52,3.73,3.73,0,0,0-.57,2.48,4.06,4.06,0,0,0,.57,2.29A5.19,5.19,0,0,0,143,45.77a6.77,6.77,0,0,0,2.1.76,10,10,0,0,0,2.47.19,10.53,10.53,0,0,0,4.77-.95,7.7,7.7,0,0,0,2.48-2.48,5.72,5.72,0,0,0,.95-2.86,11,11,0,0,0,.19-2.29v-4a7.76,7.76,0,0,1-1.71,1Zm28-20.6v5.34h.19a11.27,11.27,0,0,1,5.15-4.77,16.17,16.17,0,0,1,6.48-1.52A17.24,17.24,0,0,1,201,14.68a9.29,9.29,0,0,1,4.19,3.24,17,17,0,0,1,2.29,5,32.93,32.93,0,0,1,.58,6.49V52.82H197.56V31.27c0-3.24-.58-5.53-1.53-7s-2.67-2.48-5.34-2.48a7.61,7.61,0,0,0-6.29,2.86c-1.34,1.72-1.91,4.58-1.91,8.39V53H172V14.49Zm49.2,6.87a7.29,7.29,0,0,0-4.2,1.14,9,9,0,0,0-2.86,3.05,12.58,12.58,0,0,0-1.52,4,17.17,17.17,0,0,0-.38,4.39,31.22,31.22,0,0,0,.38,4.19A11.35,11.35,0,0,0,224.44,42a9.61,9.61,0,0,0,2.67,2.86,7.22,7.22,0,0,0,4.2,1.15,8.57,8.57,0,0,0,5.91-2.1,8.86,8.86,0,0,0,2.48-5.72h10.1c-.76,5.15-2.66,9-5.91,11.63s-7.43,4-12.58,4a20.3,20.3,0,0,1-7.82-1.53,17,17,0,0,1-6.1-4,18.86,18.86,0,0,1-4-6.1,21.15,21.15,0,0,1-1.33-7.82,22.52,22.52,0,0,1,1.33-8.2,21.09,21.09,0,0,1,3.81-6.68,20,20,0,0,1,6.11-4.38,22.2,22.2,0,0,1,8.19-1.53,24.35,24.35,0,0,1,6.49,1,16.93,16.93,0,0,1,5.53,2.67,11.69,11.69,0,0,1,4,4.58,16,16,0,0,1,1.72,6.48h-10.3c-.37-4.57-2.86-6.86-7.43-6.86ZM56.06,3.62H77.42V8.77H56.06ZM265.63,43.67c1.53,1.52,4,2.29,6.87,2.29A10.46,10.46,0,0,0,278,44.43,7.7,7.7,0,0,0,280.89,41H290c-1.53,4.57-3.81,7.82-6.86,9.91A20.38,20.38,0,0,1,272.12,54a22.52,22.52,0,0,1-8.21-1.53,15.35,15.35,0,0,1-6.1-4.2A15.1,15.1,0,0,1,254,42a22.52,22.52,0,0,1-1.33-8.2,22.17,22.17,0,0,1,1.33-8,20.67,20.67,0,0,1,4-6.48,19.48,19.48,0,0,1,6.11-4.2,22.25,22.25,0,0,1,8-1.52,16.5,16.5,0,0,1,8.39,1.91,15.58,15.58,0,0,1,5.91,5.14,23.2,23.2,0,0,1,3.43,7.25,25.41,25.41,0,0,1,.76,8.58H263a10.86,10.86,0,0,0,2.67,7.25Zm12.21-20a8.27,8.27,0,0,0-5.92-2.1,9.1,9.1,0,0,0-4.19.95,7.52,7.52,0,0,0-2.67,2.1,6.92,6.92,0,0,0-1.33,2.67,13.05,13.05,0,0,0-.38,2.48h17.16a13.11,13.11,0,0,0-2.67-6.1Z" style="fill:#47454d"/></g></g></svg>