<svg xmlns="http://www.w3.org/2000/svg" width="515.61" height="64" viewBox="0 0 515.61 64"><g id="Layer_2" data-name="Layer 2"><g id="Layer_1-2" data-name="Layer 1"><path d="M28.62,63.9a6,6,0,0,1-4.91-5.43c-.07-.73.21-3.78.92-9.94.54-4.87,1-8.91.92-8.94s-3.57,2.5-7.86,5.65-8.14,5.9-8.55,6.11a6.54,6.54,0,0,1-5.6-.07,7.54,7.54,0,0,1-3.1-3.13A4.75,4.75,0,0,1,0,45.55a4,4,0,0,1,.56-2.68A7.63,7.63,0,0,1,3.44,40c.38-.2,4.55-2.08,9.29-4.17,7.94-3.52,8.57-3.84,8.18-4-.24-.12-4.14-1.81-8.69-3.77S3.57,24.27,3.13,24A8.78,8.78,0,0,1,.38,21,4.67,4.67,0,0,1,0,18.53a4.32,4.32,0,0,1,.53-2.71,7,7,0,0,1,3.18-3.18,4.21,4.21,0,0,1,2.57-.53,4.37,4.37,0,0,1,2.88.71C10,13.25,13.43,15.63,18,19c4.12,3,7.51,5.45,7.54,5.39s-.41-4.12-.95-9-1-9.19-1-9.59a6.18,6.18,0,0,1,2.52-4.76A6.15,6.15,0,0,1,35.78,5.6c0,.56-.31,4.37-.94,9.87-.56,4.91-1,9-1,9S37.31,22,41.43,19c8.17-6,9.49-6.82,11.24-7A6.67,6.67,0,0,1,59,15.8a6.9,6.9,0,0,1,.33,4.5,7,7,0,0,1-2.6,3.46C56.23,24.09,52,26,47.41,28s-8.61,3.72-8.84,3.82c-.4.18.23.5,8.35,4.1C51.75,38.06,56,40,56.44,40.23a8.13,8.13,0,0,1,2.67,2.9,5,5,0,0,1,.36,2.5A4.35,4.35,0,0,1,59,48.32a6.47,6.47,0,0,1-8.73,2.93c-.56-.28-4.45-3-8.65-6.13S34,39.56,33.9,39.59s.4,4.15.94,9.11C35.93,58.43,36,59,35.27,60.54A6,6,0,0,1,28.62,63.9Z" style="fill:#47454d"/><path d="M114.34,7.62c-5.12,1.85-10.59,6.79-13.41,12.17-2,3.88-2.38,5.56-2.38,12,0,8.2,1.41,12.08,6.53,17.81,7.93,9,25.3,10.23,34.74,2.47,3.7-3.08,4.05-5.11,1.5-7.49-1.68-1.5-1.94-1.5-8.29,1.76-5.91,3-7.06,3.26-10.85,2.73-8.73-1.14-14.63-8.28-14.63-17.63,0-10.41,7.67-17.9,17.54-17.11a18.15,18.15,0,0,1,8.2,2.74c5.47,3.61,8.91,2.82,8.91-2.12C142.2,8.33,125.09,3.83,114.34,7.62Z" style="fill:#47454d"/><path d="M159,8.15C153.66,10.89,151,14.94,151,20.5c0,8.37,3.35,11.46,16.13,15.07,8.38,2.38,11.2,4.15,11.2,7.23,0,3.71-2.73,5.91-7.85,6.44-4.05.35-5.38,0-11.11-2.91-5.46-2.73-6.7-3.09-8.37-2.2-1.42.79-1.77,1.67-1.59,3.79.26,2.47,1,3.17,6.35,5.91s6.79,3.08,13.22,3.08c6,0,7.76-.35,10.85-2.11A14,14,0,0,0,186.9,41c-.79-7.23-4.32-10.14-16.49-13.49-8.73-2.47-10.58-3.79-10.58-7.58,0-6.09,7.59-7.58,16.84-3.44,5.12,2.29,5.29,2.29,7.06.71,2.38-2.21,1.76-4.77-1.77-7.15C175.62,5.68,165.48,4.89,159,8.15Z" style="fill:#47454d"/><path d="M203.48,7.89c-7,3.17-10,9.17-8.38,16.4,1.32,6.08,4.67,8.11,19.58,12.34,8.11,2.21,10.31,8.29,4.23,11.46-4.76,2.47-11.29,1.41-17.9-2.91-2.82-1.85-3.62-2-5.56-1.14s-2.2,1.5-1.94,3.88.89,3.17,6,5.73c9.88,4.85,20.37,4.76,26.54-.44a13.74,13.74,0,0,0,3.7-16.75c-1.76-3.88-5.11-6-13.05-8.29-9.17-2.74-10.93-3.53-12.34-5.56-1.85-2.56-1.68-3.79.88-6.26,2.91-3,8.64-3,15.52.09,5,2.29,5.29,2.29,7,.79,3.61-3.26,1.58-6.43-6.09-9.34C215.91,5.77,208.15,5.68,203.48,7.89Z" style="fill:#47454d"/><path d="M360.69,7.18c-1.41.8-1.59,2.91-1.59,24,0,16.85.27,23.46,1.06,24.25,1.68,1.68,5.82,1.32,6.88-.61.53-1.06.88-10.14.88-23.37,0-20.54-.09-21.78-1.76-23.45C364.22,6,362.89,5.86,360.69,7.18Z" style="fill:#47454d"/><path d="M394.81,7.27c-16.66,6.17-22.3,27.07-11.11,41.18,7.5,9.43,23.63,11.64,34.39,4.67C422,50.65,423,48.71,422.15,46c-1-3-3.71-3.09-8-.18-7.14,4.67-14.72,4.5-20.72-.53-8.55-7.23-8-22.22,1.15-28.21,5.47-3.62,11.37-3.71,17.81-.36,6.17,3.27,7.14,3.35,9,.53,1.33-2,1.33-2.38,0-4.41Q417.53,7,405,6.48C400.81,6.39,396.31,6.65,394.81,7.27Z" style="fill:#47454d"/><path d="M433.17,8c-1.68,1.67-1.77,2.91-1.77,23.45,0,13.23.36,22.31.89,23.37,1,1.93,5.2,2.29,6.87.61.62-.61,1.06-3.52,1.06-6.79,0-5.64.09-5.82,4.15-10l4.05-4.14,8.73,11c7.58,9.61,9,10.93,11.29,10.93a4.35,4.35,0,0,0,4.41-4.32c0-.53-4-5.91-8.91-12.08L455,28.87l8.47-8.46c4.67-4.68,8.46-9.08,8.46-9.88,0-1.85-2.82-4.32-4.93-4.32-1,0-6.44,4.94-13.58,12.35-6.53,6.79-12.17,12.34-12.52,12.34s-.71-5.11-.71-11.46c0-10.41-.17-11.46-1.67-12.35C436.08,5.86,435.2,6,433.17,8Z" style="fill:#47454d"/><path d="M487.84,8.15c-5.38,2.74-7.94,6.79-7.94,12.52,0,8.2,3.79,11.55,17,15,7.23,1.94,10.31,4.15,10.31,7.5,0,3.52-2.82,5.64-8.2,6.08-4,.26-5.38-.09-10.67-2.82C482,43.07,479.55,43,478.58,46c-1.06,3.17.44,5.11,6.43,8,5.12,2.56,6.7,2.91,13,2.91,12.44,0,17.64-4.32,17.64-14.72,0-4.94-.35-6.18-2.12-8.12-2.55-2.73-7.58-5-15.43-7.14-6.7-1.76-9.34-3.7-9.34-7,0-5.82,7.84-7.41,16.75-3.44,4.14,1.85,5.47,2.12,7,1.32a4.29,4.29,0,0,0,1.14-5.91c-1.67-2.55-8.73-5-15.16-5.37C492.77,6.12,491.19,6.39,487.84,8.15Z" style="fill:#47454d"/><path d="M259.64,8.15c-1.58,1.59-1.23,4.94.62,6,1,.44,4.5.88,7.94.88h6.26v19c0,11.38.35,19.67.88,20.73,1.06,1.93,5.2,2.29,6.88.61.79-.79,1-6.61,1-20.72V15.12l7.15-.27c6.08-.26,7.4-.53,8.28-2A3.85,3.85,0,0,0,299.06,9c-.71-1.94-.88-1.94-19.58-1.94C266.08,7.09,260.44,7.36,259.64,8.15Z" style="fill:#47454d"/><path d="M309,8.15c-1.5,1.5-1.5,45.76,0,47.26,1.68,1.68,5.82,1.32,6.88-.61.44-1,.88-4.94.88-8.82V38.84H327.1l6.87,8.9c6.7,8.55,7.06,8.82,10.06,8.55,2.73-.26,3.17-.61,3.43-2.73.27-1.94-.79-4-4.58-8.9-2.73-3.53-4.94-6.62-4.94-6.79s1.41-1.15,3.09-2c8-4.32,9.87-17.46,3.35-23.63-4.5-4.32-7.85-5.12-21.69-5.12C314.05,7.09,309.73,7.45,309,8.15Zm26.28,8c5.11,2.55,5.46,9.69.61,13.31-1.94,1.41-4.05,1.85-10.75,2.12l-8.38.35V15H325C329.74,15,334,15.47,335.3,16.18Z" style="fill:#47454d"/><path d="M238.92,31.52c-1,1-.7,5.11.44,6.26,1.42,1.41,17.64,1.41,19.05,0a4.77,4.77,0,0,0,0-5.82C257.26,30.81,240,30.37,238.92,31.52Z" style="fill:#47454d"/></g></g></svg>