<svg xmlns="http://www.w3.org/2000/svg" xmlns:xlink="http://www.w3.org/1999/xlink" width="364.89" height="64" viewBox="0 0 364.89 64"><defs><clipPath id="clip-path"><rect x="97.35" width="268" height="64" style="fill:none"/></clipPath></defs><g id="Layer_2" data-name="Layer 2"><g id="Layer_1-2" data-name="Layer 1"><path d="M32,0A32,32,0,1,0,54.62,9.38,32,32,0,0,0,32,0ZM59,29.59c-.78,0-1.57-.05-2.35-.05a51.39,51.39,0,0,0-13.52,1.8A52.32,52.32,0,0,0,39,22.15a51.89,51.89,0,0,0,11.75-9.7A27,27,0,0,1,59,29.59ZM46.86,9.37A46.89,46.89,0,0,1,36.31,18,51.89,51.89,0,0,0,24.42,6,27.06,27.06,0,0,1,46.88,9.37ZM19,8.27A47.14,47.14,0,0,1,31.89,20.33a46.77,46.77,0,0,1-19.58,4.29,48.21,48.21,0,0,1-6.24-.42A27.2,27.2,0,0,1,19,8.27ZM4.92,32a26.88,26.88,0,0,1,.17-3,51.23,51.23,0,0,0,7.22.51,51.59,51.59,0,0,0,22.31-5.05,45.82,45.82,0,0,1,3.79,8.35,51.28,51.28,0,0,0-7.57,3.57A52.07,52.07,0,0,0,13.9,52.12,27,27,0,0,1,4.92,32ZM17.85,55.08A46.69,46.69,0,0,1,39.75,37.6,47,47,0,0,1,40.9,47.9a46.87,46.87,0,0,1-1.08,10,27.07,27.07,0,0,1-22-2.84Zm27.4.53a52.17,52.17,0,0,0,.57-7.69,51.83,51.83,0,0,0-1.37-11.84,47.19,47.19,0,0,1,12.17-1.62c.77,0,1.56,0,2.34.06A27.11,27.11,0,0,1,45.25,55.61Z" style="fill:#47454d"/><g style="clip-path:url(#clip-path)"><path d="M362.07,44.32c-.83-.59-1.49-.67-2,.45-9.32,19.73-25,9.88-23.45,10.75,3.49-1.57,12.64-8.74,11.27-18.67-.83-6.08-6.15-8.77-11.81-7.79-9.86,1.68-13.46,12.1-11.64,21.31a18,18,0,0,0,1.49,4.17c-11.12,8.87-15.55-7.93-16.07-9.94,0-.11,8.61-7.14,11-23.91C323.36,3.14,317.64-.08,311.78,0c-10.84.2-13.75,22.34-9.84,40.79a12.06,12.06,0,0,1-4.31,1c-1.78-5.46-9.35-10.25-11.33-8.4-4.94,4.62,1.21,13.63,5.55,14.33C289.25,63.47,273,59.58,276,39.9c5.29-9.63,9.35-24,8.61-32.64a7.38,7.38,0,0,0-7.81-7c-10.06.39-11.15,22.53-10,38.26-.06-.39-.63,1.91-4.75,3.05-1-5.29-9.69-10.63-11.75-8.06-3.83,4.79,2.83,13.33,6,13.91-2.6,15.71-18.89,11.82-15.86-7.86,5.32-9.63,9.35-24,8.63-32.61a7.37,7.37,0,0,0-7.8-7c-10.07.39-11.16,22.53-10,38.26-.06-.39-.63,2-4.92,3.11-.14-6.89-8.89-10-11-7.84-3.74,3.92.86,12,5.12,13.91-2.6,15.71-18.9,11.82-15.87-7.86,5.29-9.63,9.35-24,8.61-32.64A7.34,7.34,0,0,0,205.42,0c-10.06.39-10.86,23.65-9.69,39.38-3.32,13.92-14.44,31.27-13-3.52.14-2.44.29-3.36-.94-4.29-.95-.7-3.06-.36-4.21-.33-1.4.05-1.77.86-2.06,2.07a52.52,52.52,0,0,0-1,10.36,17.86,17.86,0,0,1-1,5.51c-.77,2.66-5.12,7.5-7.52,6.69-3.31-1.12-2.23-10.27-1.6-16.57.52-5-1.14-7.2-5.37-8-2.49-.5-4-.42-6.58-1.23s-3-5.29-8.2-3.78c-2.86.84-1,6.75-1.72,11.14C139.21,59,132.2,59.6,128.94,49.13c14.64-35.16,4.21-49-1.88-49-6.35,0-13.61,4.28-10.55,31.71a10.19,10.19,0,0,0-3.61-.64c-9.23,0-15.55,7.31-15.55,16.35s6.32,16.37,15.58,16.37a14.72,14.72,0,0,0,12.21-6.18c1.89,2.66,4.2,6.24,8.43,6.07,12.58-.47,16.24-25.75,16.67-27.18,1.35.2,2.63.59,3.86.79,2.06.3,2.23,1.12,2.18,3.13-.55,17.19,2.68,23.21,10,23.21,4.09,0,7.75-4,10.26-6.75,1.89,3.81,4.86,6.63,8.9,6.75,9.72.22,13.46-15,13.12-13-.26,1.56,3.14,12.84,13.18,12.9,12.41.06,14.72-13.3,15-15.54,0-.44.06-.39,0,0v.14a11.84,11.84,0,0,0,6-2.77s3.17,18.39,14.86,18.2c12.15-.23,14.47-12.29,14.75-14.64,0-.56.06-.51,0,0v.05c4.69-1.68,5.92-3.33,5.92-3.33s2.52,18,14.87,18.2c11,.14,15.1-10.92,15.13-15.54a17.46,17.46,0,0,0,5.2-1.15s4,15.76,15.29,16.58c5.29.39,9.27-2.91,11.53-4.43,5.31,4.23,23,9.61,34.19-9C366.07,47.87,362.67,44.71,362.07,44.32ZM112.47,57.78c-5.4,0-8.86-4.9-8.86-10.16s3.18-10.16,8.58-10.16c2.43,0,3.77.25,5.69,1.88.34,1.31,1.31,4.36,1.8,5.76.63,1.85,1.4,3.45,2.14,5.15A9.5,9.5,0,0,1,112.47,57.78Zm13.16-18.3c-.23-.37-.18-.14-.43-.48a50.6,50.6,0,0,1-3.12-15.2c-.26-7.56,1-16.43,4.83-16.43C129.49,7.37,132.23,25.34,125.63,39.48Zm76.08-7.87c-.61-4.48-.63-24.49,4.26-23.93C208.68,8.74,204.25,27.61,201.71,31.61Zm35.82,0c-.6-4.48-.63-24.49,4.26-23.93C244.51,8.74,240.07,27.61,237.53,31.61Zm35.54.28c-.6-4.48-.63-24.49,4.26-23.93C280,9,275.61,27.89,273.07,31.89ZM312.29,6.47c4.49-.45,4.29,18.73-4.68,30.82C306.43,32.93,304.66,8,312.29,6.47Zm18.87,41.29c-1.43-7.14,2.29-11.81,6.12-12.32a3.4,3.4,0,0,1,3.66,2.24c.63,3-.08,7.45-8.69,13.08A13.4,13.4,0,0,1,331.16,47.76Zm-152.07-22a5.43,5.43,0,1,0-5.55-5.43A5.5,5.5,0,0,0,179.09,25.76Z" style="fill:#47454d"/></g></g></g></svg>