<svg width="166" height="35" viewBox="0 0 166 35" fill="none" xmlns="http://www.w3.org/2000/svg">
<path d="M17.2148 3.22754C14.4484 3.22754 11.7442 4.04786 9.44403 5.58478C7.14388 7.1217 5.35112 9.30617 4.29248 11.862C3.23383 14.4178 2.95684 17.2301 3.49654 19.9433C4.03623 22.6565 5.36836 25.1488 7.32449 27.1049C9.28061 29.061 11.7729 30.3932 14.4861 30.9329C17.1993 31.4725 20.0116 31.1956 22.5674 30.1369C25.1232 29.0783 27.3077 27.2855 28.8446 24.9854C30.3815 22.6852 31.2019 19.981 31.2019 17.2146C31.1979 13.5062 29.723 9.9508 27.1008 7.32857C24.4786 4.70634 20.9232 3.23146 17.2148 3.22754ZM29.0029 16.1629C28.6604 16.1467 28.3175 16.1387 27.9741 16.1387C25.9783 16.1392 23.9912 16.4033 22.0646 16.9241C21.5948 15.5302 20.9889 14.186 20.2557 12.9109C22.1681 11.7576 23.8994 10.3278 25.3932 8.66769C27.466 10.6453 28.749 13.3092 29.0029 16.1629ZM23.708 7.32413C22.3641 8.80081 20.8108 10.0723 19.0977 11.0979C17.6629 9.07845 15.908 7.30677 13.9023 5.8528C15.5477 5.37246 17.2778 5.25526 18.9729 5.5093C20.6681 5.76334 22.2878 6.38256 23.7201 7.32413H23.708ZM11.5191 6.84265C13.7175 8.22709 15.6341 10.015 17.1677 12.112C14.4836 13.3491 11.5629 13.9888 8.60741 13.9868C7.69525 13.9863 6.78411 13.9257 5.87994 13.8052C6.77962 10.8377 8.80324 8.33918 11.5191 6.84265ZM5.37963 17.2146C5.37957 16.7814 5.40337 16.3486 5.45091 15.9181C6.49667 16.0649 7.55139 16.1386 8.60741 16.1387C11.9825 16.1418 15.3154 15.3881 18.3607 13.933C19.0316 15.0916 19.5862 16.3138 20.0163 17.5817C18.8733 18.0111 17.7673 18.5328 16.7091 19.1418C13.7571 20.8472 11.226 23.1941 9.30272 26.0089C8.06765 24.9009 7.07993 23.5451 6.40397 22.0298C5.72801 20.5145 5.37898 18.8738 5.37963 17.2146ZM11.0282 27.3014C12.7744 24.7187 15.0849 22.5669 17.7851 21.0086C18.6878 20.4876 19.6299 20.0379 20.6026 19.6637C20.9355 21.141 21.1038 22.6507 21.1043 24.1651C21.105 25.6373 20.9476 27.1054 20.6349 28.5441C19.0367 29.0269 17.3543 29.1658 15.6985 28.9516C14.0427 28.7374 12.451 28.175 11.0282 27.3014ZM23.006 27.534C23.172 26.421 23.2556 25.2972 23.2561 24.1718C23.2559 22.4299 23.0551 20.6938 22.6577 18.9979C24.3911 18.5301 26.1786 18.2923 27.9741 18.2905C28.3148 18.2905 28.6559 18.299 28.9975 18.3161C28.8174 20.222 28.1783 22.0559 27.1349 23.661C26.0915 25.2661 24.6748 26.5945 23.006 27.5327V27.534Z" fill="#47454D"/>
<g clip-path="url(#clip0_244_410)">
<path d="M164.487 22.8958C164.104 22.6243 163.801 22.5859 163.551 23.1024C159.253 32.2021 152.015 27.6589 152.74 28.0588C154.349 27.3357 158.568 24.0314 157.935 19.4492C157.552 16.6483 155.1 15.4091 152.49 15.8606C147.942 16.6353 146.281 21.4371 147.124 25.6837C147.269 26.4194 147.533 27.0132 147.81 27.6069C142.681 31.6987 140.638 23.9541 140.401 23.0248C140.388 22.9731 144.369 19.7331 145.476 12.0015C146.637 3.90805 144 2.42364 141.297 2.47529C136.301 2.56559 134.956 12.7758 136.762 21.2821C136.617 21.3208 135.905 21.708 134.772 21.7469C133.954 19.2296 130.461 17.0225 129.551 17.8745C127.27 20.0043 130.105 24.1603 132.109 24.4832C130.909 31.7246 123.394 29.9304 124.792 20.8563C127.231 16.4157 129.103 9.79404 128.76 5.80562C128.641 4.39823 127.573 2.50126 125.161 2.59156C120.52 2.77217 120.019 12.9824 120.56 20.2365C120.534 20.0559 120.27 21.1142 118.371 21.6436C117.923 19.204 113.902 16.7386 112.953 17.9261C111.187 20.1336 114.258 24.0703 115.708 24.3413C114.509 31.5827 106.994 29.7884 108.392 20.7143C110.844 16.2738 112.703 9.66508 112.373 5.67665C112.255 4.26956 111.187 2.372 108.774 2.4626C104.133 2.64321 103.632 12.8535 104.173 20.1073C104.147 19.9267 103.883 21.0239 101.905 21.5403C101.84 18.365 97.8056 16.9192 96.8299 17.9261C95.1028 19.7331 97.2253 23.4376 99.1896 24.3413C97.99 31.5827 90.4756 29.7884 91.8729 20.7143C94.3119 16.2738 96.184 9.6521 95.8413 5.66367C95.7358 4.26956 94.6679 2.372 92.2551 2.4626C87.6146 2.64321 87.2457 13.3696 87.7861 20.6237C86.2568 27.0392 81.1286 35.042 81.8007 18.9977C81.8667 17.8745 81.9327 17.4483 81.3658 17.0225C80.9309 16.6999 79.9552 16.8546 79.4277 16.8676C78.7818 16.8935 78.6106 17.2677 78.4786 17.8228C78.1492 19.2686 78.0831 20.6754 78.0304 22.5986C78.0042 23.5022 77.9249 23.9154 77.5689 25.1416C77.213 26.3678 75.2092 28.6009 74.1018 28.2267C72.5725 27.7102 73.0734 23.4893 73.3634 20.5851C73.6009 18.2876 72.8362 17.268 70.8852 16.8932C69.738 16.6613 69.0394 16.6999 67.853 16.3254C66.7191 15.9772 66.4686 13.8861 64.0694 14.5831C62.7511 14.9703 63.5947 17.6936 63.2782 19.7204C61.7227 29.6721 58.4928 29.9431 56.9899 25.1156C63.7397 8.9034 58.928 2.51395 56.1198 2.51395C53.1931 2.51395 49.8444 4.48913 51.255 17.1388C50.5696 16.9452 50.3586 16.8419 49.594 16.8419C45.3356 16.8289 42.4222 20.2109 42.4222 24.3799C42.4222 28.5492 45.3356 31.9312 49.6072 31.9312C52.1252 31.9312 53.8917 30.808 55.2363 29.0784C56.1065 30.3049 57.1744 31.9569 59.1254 31.8796C64.926 31.66 66.6136 20.0043 66.8113 19.3462C67.431 19.4362 68.0242 19.6171 68.5912 19.7074C69.5406 19.8494 69.6196 20.2239 69.5931 21.1532C69.3429 29.0784 70.8324 31.8539 74.2206 31.8539C76.1056 31.8539 77.7932 30.0336 78.9533 28.7428C79.8235 30.4984 81.1943 31.802 83.0534 31.8536C87.5356 31.9569 89.2627 24.961 89.1045 25.8776C88.9857 26.6 90.5546 31.802 95.1821 31.8279C100.903 31.8536 101.971 25.6967 102.09 24.6641C102.103 24.4575 102.116 24.4832 102.09 24.6641V24.7284C103.909 24.3929 104.845 23.4506 104.845 23.4506C104.845 23.4506 106.309 31.9312 111.701 31.8406C117.304 31.7373 118.371 26.1745 118.503 25.0899C118.517 24.8317 118.53 24.8577 118.503 25.0899V25.1156C120.665 24.3413 121.232 23.5799 121.232 23.5799C121.232 23.5799 122.392 31.8926 128.088 31.9699C133.163 32.0345 135.048 26.9359 135.062 24.806C135.918 24.8187 137.501 24.3026 137.461 24.2769C137.461 24.2769 139.32 31.544 144.514 31.9182C146.953 32.0988 148.785 30.5758 149.827 29.879C152.279 31.8279 160.44 34.3063 165.594 25.7483C166.332 24.5348 164.764 23.0767 164.487 22.8958ZM49.3962 29.104C46.9045 29.104 45.3091 26.8453 45.3091 24.4186C45.3091 21.9919 46.7728 19.7328 49.2645 19.7328C50.3849 19.7328 51.0045 19.8491 51.888 20.5975C52.0459 21.2045 52.4944 22.6113 52.7184 23.2567C53.0083 24.1087 53.3643 24.8444 53.707 25.6318C53.1931 27.671 51.5582 29.104 49.3962 29.104ZM55.4606 20.6624C55.3551 20.4945 55.3813 20.5975 55.2629 20.4428C54.8147 19.2296 53.9312 16.5187 53.8257 13.4339C53.7073 9.94868 54.3005 5.85697 56.0538 5.85697C57.2404 5.85697 58.506 14.1437 55.4606 20.6624ZM90.5413 17.0352C90.2646 14.97 90.2513 5.74069 92.5059 5.99892C93.7582 6.48939 91.7147 15.1893 90.5413 17.0352ZM107.06 17.0352C106.783 14.97 106.77 5.74069 109.025 5.99892C110.277 6.48939 108.233 15.1893 107.06 17.0352ZM123.447 17.1641C123.17 15.099 123.157 5.86995 125.411 6.12788C126.664 6.60566 124.62 15.3185 123.447 17.1641ZM141.535 5.44381C143.604 5.23723 143.512 14.0794 139.373 19.6555C138.832 17.6419 138.015 6.14086 141.535 5.44381ZM150.236 24.4829C149.577 21.1915 151.29 19.0357 153.057 18.8035C153.677 18.7132 154.573 19.1004 154.744 19.8364C155.034 21.2175 154.705 23.2697 150.737 25.864C150.75 25.877 150.381 25.2059 150.236 24.4829ZM80.1134 14.3376C81.524 14.3376 82.6709 13.2147 82.6709 11.8336C82.6709 10.4524 81.524 9.32954 80.1134 9.32954C78.7028 9.32954 77.5557 10.4524 77.5557 11.8336C77.5557 13.2147 78.7028 14.3376 80.1134 14.3376Z" fill="#47454D"/>
</g>
<defs>
<clipPath id="clip0_244_410">
<rect width="123.578" height="29.5111" fill="white" transform="translate(42.4222 2.45947)"/>
</clipPath>
</defs>
</svg>
