<svg xmlns="http://www.w3.org/2000/svg" width="352.71" height="68.05" viewBox="0 0 352.71 68.05"><g id="Layer_2" data-name="Layer 2"><g id="Layer_1-2" data-name="Layer 1"><path d="M19.3.11A1.32,1.32,0,0,0,18.8,0a2.35,2.35,0,0,0-.26.38,5.92,5.92,0,0,0-.14.94A35,35,0,0,1,9.92,21a73.59,73.59,0,0,0-7.8,10.39c-5.19,9-.56,18.2,10.8,22.22.36.13.78.19,1.72.41-3.86-3.48-5.83-7-5.17-11.21A20.48,20.48,0,0,1,15.19,32a2.35,2.35,0,0,1,.23,1.25,9.83,9.83,0,0,0,4.67,9.19,57.94,57.94,0,0,1,4.71,3.72,4.21,4.21,0,0,1,1.56,4.57c-.2.83-.51,1.64-.85,2.65,2.59-.25,5-.6,6.6-2a53.88,53.88,0,0,0,4.33-4.88,33.1,33.1,0,0,1,.25,4.08,32.41,32.41,0,0,1-.76,3.83c7.88-1.19,14.83-8.92,15.14-16.83.22-5.77-4.69-14.22-8.82-15l.68,1.56a13.79,13.79,0,0,1,1,9.64c-.91,3.28-5.5,7-9.55,7.43a3.62,3.62,0,0,1,.38-.89c4.37-5.88,4.41-12,1.94-18.32C33.33,13.55,27,6.53,19.3.12Z" style="fill:#47454d"/><path d="M126.37,6.32v8.75H108.11v9.45h13.67V33H108.11V51.14H97.2V6.32Z" style="fill:#47454d"/><path d="M132.92,10.12a5.49,5.49,0,0,1-1.82-4.18,5.58,5.58,0,0,1,1.82-4.25A6.65,6.65,0,0,1,137.61,0a6.57,6.57,0,0,1,4.63,1.69,5.58,5.58,0,0,1,1.82,4.25,5.49,5.49,0,0,1-1.82,4.18,6.52,6.52,0,0,1-4.63,1.69A6.6,6.6,0,0,1,132.92,10.12ZM143,15.51V51.14H132.12V15.51Z" style="fill:#47454d"/><path d="M166.66,16.82a12.43,12.43,0,0,1,6.39-1.69V26.69h-3q-4.1,0-6.13,1.75c-1.37,1.17-2,3.23-2,6.16V51.14H151V15.51h10.91v5.94A14.49,14.49,0,0,1,166.66,16.82Z" style="fill:#47454d"/><path d="M211.67,35.43H187a7.45,7.45,0,0,0,2.14,5.08,6.55,6.55,0,0,0,4.63,1.76,5.73,5.73,0,0,0,5.68-3.45H211a15.89,15.89,0,0,1-3.22,6.32A16.22,16.22,0,0,1,202,49.55a18.84,18.84,0,0,1-7.86,1.59,19.11,19.11,0,0,1-9.32-2.23,15.89,15.89,0,0,1-6.38-6.39,19.71,19.71,0,0,1-2.3-9.7,20,20,0,0,1,2.27-9.71,15.67,15.67,0,0,1,6.35-6.38,20.67,20.67,0,0,1,18.58-.07,15.64,15.64,0,0,1,6.29,6.2,18.8,18.8,0,0,1,2.26,9.38A27.24,27.24,0,0,1,211.67,35.43Zm-11-6.06a5.64,5.64,0,0,0-1.91-4.47A7.05,7.05,0,0,0,194,23.24a6.88,6.88,0,0,0-4.63,1.6A7.06,7.06,0,0,0,187,29.37Z" style="fill:#47454d"/><path d="M223.8,49.55a14.24,14.24,0,0,1-5.74-4.38A11.47,11.47,0,0,1,215.69,39h10.79a4.18,4.18,0,0,0,1.73,3A6.11,6.11,0,0,0,232,43.1a5.42,5.42,0,0,0,3.17-.8,2.46,2.46,0,0,0,1.11-2.08A2.39,2.39,0,0,0,234.66,38a32.88,32.88,0,0,0-5.17-1.63,48.9,48.9,0,0,1-6.39-1.88,11.07,11.07,0,0,1-4.4-3.13,8.52,8.52,0,0,1-1.86-5.78,9.82,9.82,0,0,1,1.7-5.59,11.32,11.32,0,0,1,5-4,19,19,0,0,1,7.82-1.47q6.71,0,10.56,3.32a12.9,12.9,0,0,1,4.44,8.81H236.25a4.32,4.32,0,0,0-1.63-2.93A5.58,5.58,0,0,0,231,22.6a5,5,0,0,0-2.94.74,2.35,2.35,0,0,0-1,2,2.46,2.46,0,0,0,1.63,2.3,25.87,25.87,0,0,0,5.07,1.53,55.28,55.28,0,0,1,6.45,2,11.05,11.05,0,0,1,4.37,3.19,9,9,0,0,1,1.95,5.91,9.35,9.35,0,0,1-1.75,5.58,11.73,11.73,0,0,1-5.05,3.87,19.38,19.38,0,0,1-7.63,1.4A20.58,20.58,0,0,1,223.8,49.55Z" style="fill:#47454d"/><path d="M285,19.19q3.69,4.05,3.7,11.14V51.14H277.82V31.8A7.8,7.8,0,0,0,276,26.24a7.25,7.25,0,0,0-10,0,7.84,7.84,0,0,0-1.85,5.56V51.14H253.24V3.89h10.91V20.3a11.65,11.65,0,0,1,4.54-3.76,14.4,14.4,0,0,1,6.44-1.41A12.67,12.67,0,0,1,285,19.19Z" style="fill:#47454d"/><path d="M297.07,10.12a5.46,5.46,0,0,1-1.82-4.18,5.55,5.55,0,0,1,1.82-4.25,7.27,7.27,0,0,1,9.32,0,5.58,5.58,0,0,1,1.82,4.25,5.49,5.49,0,0,1-1.82,4.18,7.27,7.27,0,0,1-9.32,0Zm10.12,5.39V51.14H296.27V15.51Z" style="fill:#47454d"/><path d="M330.42,16.47A13.47,13.47,0,0,1,337,14.93a14.73,14.73,0,0,1,8,2.24,15.44,15.44,0,0,1,5.65,6.38,21.21,21.21,0,0,1,2.08,9.64,21.45,21.45,0,0,1-2.08,9.68A15.61,15.61,0,0,1,345,49.31a14.51,14.51,0,0,1-8,2.27,13.56,13.56,0,0,1-6.54-1.53,11.9,11.9,0,0,1-4.44-4v22H315.1V15.44H326v5A11.81,11.81,0,0,1,330.42,16.47Zm8.91,10.31a7.45,7.45,0,0,0-5.58-2.33,7.34,7.34,0,0,0-5.53,2.36A8.91,8.91,0,0,0,326,33.26a9,9,0,0,0,2.26,6.45,7.64,7.64,0,0,0,11.08,0,9,9,0,0,0,2.3-6.48A8.8,8.8,0,0,0,339.33,26.78Z" style="fill:#47454d"/></g></g></svg>